<?xml version="1.0" encoding="UTF-8"?>
<COLLADA xmlns="http://www.collada.org/2005/11/COLLADASchema" version="1.4.1">
<!--
# File generated by ImageToStl.com - Free Image and 3D model conversion tools
-->
  <asset>
    <contributor>
      <author>ImageToStl.com</author>
      <authoring_tool>ImageToStl.com</authoring_tool>
    </contributor>
    <created>2026-03-22T02:15:50</created>
    <modified>2026-03-22T02:15:50</modified>
    <up_axis>Z_UP</up_axis>
  </asset>
  <library_effects>
    <effect id="effect_0">
        <profile_COMMON>
          <technique sid="common">
            <phong>
              <diffuse>
                <color>0.85 0.85 0.85 1</color>
              </diffuse>
              <specular>
                <color>0.05 0.05 0.05 1</color>
              </specular>
              <shininess>
                <float>64</float>
              </shininess>
            </phong>
          </technique>
        </profile_COMMON>
    </effect>
  </library_effects>
  <library_materials>
    <material id="mat_0">
      <instance_effect url="#effect_0"/>
    </material>
  </library_materials>
  <library_geometries>
    <geometry id="geometry_0a0ef230_42ab_45f6_8fee_a2114fe12df6">
      <mesh>
        <source id="pos_0">
          <float_array id="pos_0-array" count="1941">-949.77423096 160.40531921 47.21452332 -949.77423096 165 47.34637451 -949.77423096 165 51.00184631 -949.77423096 -165 51.00184631 -949.77423096 -165 47.34637451 -949.77423096 -160.40631104 50.97980499 -949.77423096 -156.36412048 47.09587479 -949.77423096 -154.74732971 50.95734024 -949.77423096 74.42695618 44.22853088 -949.77423096 66.16862488 51.14598083 -949.77423096 49.7469101 43.24038696 -949.77423096 44.76259232 51.30178833 -949.77423096 22.15709877 42.07717896 -949.77423096 22.15366936 51.50742722 -949.77423096 0 41.10036469 -949.77423096 99.10899353 45.16535187 -949.77423096 88.12349701 51.02642822 -949.77423096 80.57366943 51.06286621 -949.77423096 -151.34938049 50.9464035 -949.77423096 -147.72862244 46.83359909 -949.77423096 -149.09487915 50.9401741 -949.77423096 -99.12481689 45.16593552 -949.77423096 -99.09443665 50.98239136 -949.77423096 -110.10530853 45.5655098 -949.77423096 -114.65224457 50.93853378 -949.77423096 -132.5584259 50.91883469 -949.77423096 -130.45872498 46.27457428 -949.77423096 -121.15200043 50.92717743 -949.77423096 -121.15577698 45.95605469 -949.77423096 -112.16925812 45.63936996 -949.77423096 -143.4961853 50.92809677 -949.77423096 -143.47154236 46.70012283 -949.77423096 -137.85951233 50.92089844 -949.77423096 -137.85932922 46.51986694 -949.77423096 -132.24357605 46.33444595 -949.77423096 116.05905914 45.77745056 -949.77423096 110.12166595 50.94896698 -949.77423096 99.12979889 50.98226547 -949.77423096 133.01011658 46.36002731 -949.77423096 132.23834229 50.91884232 -949.77423096 121.15055084 45.9558754 -949.77423096 121.14942932 50.92718124 -949.77423096 116.38531494 50.93508148 -949.77423096 8.95237827 51.64641571 -949.77423096 0 51.74835968 -949.77423096 -8.62691402 41.48505783 -949.77423096 -22.15638924 51.50740051 -949.77423096 -43.1370697 42.96724701 -949.77423096 -48.39260483 51.27267075 -949.77423096 -66.16803741 43.90346909 -949.77423096 -66.18206787 51.14589691 -949.77423096 -77.65119934 44.35388184 -949.77423096 -77.16104889 51.08095169 -949.77423096 -88.12804413 44.75506592 -949.77423096 -88.12729645 51.02641678 -949.77423096 -96.74610138 50.99093246 -949.77423096 160.36434937 50.97961807 -949.77423096 157.33255005 50.96693802 -949.77423096 151.82029724 46.9593277 -949.77423096 149.66508484 50.94167709 -949.77423096 149.10324097 46.87612534 -949.77423096 149.06976318 50.94011307 -949.77423096 143.50012207 46.70103073 -949.77423096 143.47296143 50.92805481 -949.77423096 137.85952759 46.51987076 -949.77423096 137.8381958 50.92088318 -949.77423096 134.33010864 50.91905594 -979.59063721 -165 49.09579086 -979.51330566 -165 49.07551956 -979.5916748 -165 49.30041122 -977.76135254 -165 48.84049606 -972.91766357 -165 48.48543549 -973.63458252 -165 49.83877182 -971.65234375 -165 48.40924835 -966.81939697 -165 50.21175003 -968.59606934 -165 48.23642731 -963.41101074 -165 50.38386917 -956.36639404 -165 47.6289444 -977.03948975 -165 49.60743332 -978.73822021 -165 49.4444046 -979.28265381 -165 49.0281105 -979.3135376 -165 49.36108017 -979.58056641 -165 49.30348969 -979.65722656 -165 49.11686707 -979.65332031 -165 49.28139114 -979.72814941 -165 49.14770508 -979.73791504 -165 49.24391174 -979.76080322 -165 49.22612381 -979.76812744 -165 49.21710587 -979.77160645 -165 49.21067047 -979.75311279 -165 49.16436386 -979.77355957 -165 49.20444489 -979.76495361 -165 49.17606735 -979.77062988 -165 49.18473053 -979.77410889 -165 49.19892502 -979.77319336 -165 49.1915741 -978.64440918 134.98899841 48.48560333 -978.26452637 135.09547424 48.41240311 -978.28997803 124.69366455 48.21120071 -979.41558838 155.61276245 49.04500961 -979.22210693 155.68141174 49.16047287 -979.58685303 160.80711365 49.14524841 -971.65234375 165 48.40924835 -968.59606934 165 48.23642731 -968.66589355 159.29589844 48.11713028 -968.90130615 24.08876419 44.12782288 -973.543396 27.22220039 44.81395721 -968.80236816 42.54190826 44.77508545 -982.72674561 33.42095566 47.13825607 -982.69012451 33.3962326 47.19168472 -982.20697021 41.46268845 47.3192215 -974.25408936 42.08824539 48.89193726 -973.99230957 27.52519035 48.92329788 -969.80328369 24.69762993 49.42904663 -978.51385498 41.74339294 48.30781174 -977.80731201 30.10033417 48.4067421 -980.10357666 41.61687851 48.02290726 -980.60809326 31.99086761 47.92128754 -981.71002197 41.49058151 47.59963226 -982.01275635 32.93901443 47.55473328 -981.51141357 41.50608826 47.67004013 -981.79602051 32.7927475 47.6253891 -981.28436279 41.5238533 47.74047089 -981.58416748 32.64974594 47.6873436 -982.4052124 33.20390701 47.39339447 -982.23999023 33.09236908 47.46870041 -982.2098999 33.07210159 47.48101044 -982.62402344 33.35160828 47.25632095 -982.55004883 33.30168533 47.31062698 -982.01971436 41.46649551 47.45875931 -981.87963867 41.47737503 47.52921295 -982.68988037 33.39608002 47.19195557 -982.20721436 41.45721436 47.03236008 -982.72875977 33.42234039 46.95465088 -982.73596191 33.42718887 46.97032547 -982.74188232 33.43120575 46.98630905 -982.74633789 33.43419266 47.00182724 -982.74938965 33.43624115 47.01701736 -982.69433594 33.39907837 46.90115356 -982.70318604 33.40509415 46.91296005 -982.71746826 33.41469193 46.93426514 -982.75030518 33.43685913 47.02359772 -982.75158691 33.43772888 47.04493332 -982.27233887 41.45804977 47.17633057 -982.75158691 33.43772888 47.04580688 -982.74499512 33.43329239 47.09294128 -982.01977539 41.46669769 46.89081192 -982.50823975 33.27348709 46.74415588 -982.57788086 33.32044983 46.79191208 -982.59204102 33.33004761 46.80273819 -982.63409424 33.35839462 46.83772659 -982.66766357 33.38110733 46.87041855 -982.47369385 33.25011826 46.72282028 -981.87982178 41.47761917 46.81901169 -982.29376221 33.12872696 46.62778091 -981.71026611 41.49087143 46.74700546 -982.02252197 32.94561005 46.51264191 -982.02166748 32.94507217 46.51233292 -981.51171875 41.50642014 46.6747818 -981.28479004 41.52422714 46.60232925 -981.79278564 32.79055023 46.42959213 -955.33789062 43.70198441 43.46833038 -956.68127441 21.84593964 42.70783234 -965.06610107 21.5 43.58505249 -957.70629883 0 41.89099503 -965.06610107 0 42.73200226 -953.4798584 87.45462799 44.9899826 -954.24493408 65.57025146 44.22902679 -953.1854248 109.34210968 45.75099945 -953.29534912 120.26990509 46.13124084 -953.66070557 131.17707825 46.51115036 -953.97473145 136.61836243 46.70090103 -954.40380859 142.04785156 46.89046097 -956.36639404 165 47.6289444 -957.60656738 163.19813538 47.63940811 -956.55065918 158.02189636 47.45399094 -955.67401123 152.76396179 47.26724243 -972.91766357 165 48.48543549 -979.28265381 165 49.0281105 -978.97528076 155.76045227 48.87186432 -979.51330566 165 49.07551956 -979.59075928 160.81483459 49.13300323 -979.59063721 165 49.09579086 -979.65722656 165 49.11686707 -979.75891113 164.99710083 49.16962433 -979.72814941 165 49.14770508 -979.58831787 160.8105011 49.14234924 -979.77319336 165 49.1915741 -979.77062988 165 49.18473053 -979.7701416 164.99963379 49.18381882 -979.76495361 165 49.17606735 -979.75311279 165 49.16436386 -979.58056641 165 49.30348969 -979.5916748 165 49.30041122 -979.65332031 165 49.28139114 -979.76080322 165 49.22612381 -979.76812744 165 49.21710587 -979.75616455 164.99890137 49.23049545 -979.77154541 164.99975586 49.21077347 -979.73791504 165 49.24391174 -979.76257324 164.99760437 49.22415543 -979.77410889 165 49.19892502 -979.77355957 165 49.20444489 -979.77160645 165 49.21067047 -973.63458252 165 49.83877182 -977.03948975 165 49.60743332 -976.45947266 156.60987854 49.52169418 -978.73822021 165 49.4444046 -978.64331055 155.87139893 49.27930832 -968.66802979 159.29304504 50.05004883 -969.35717773 164.41917419 50.0717926 -966.81939697 165 50.21175003 -963.41101074 165 50.38386917 -957.6072998 163.19554138 50.64661789 -955.67437744 152.76138306 50.67028046 -954.96490479 147.43414307 50.68030548 -954.40368652 142.0453949 50.68932724 -953.9743042 136.61598206 50.69768524 -953.66003418 131.17478943 50.70584488 -953.2578125 98.4003067 50.75273895 -953.47607422 87.45307159 50.76800156 -953.80987549 76.50868225 50.78331375 -955.33050537 43.70121384 50.82966614 -956.67205811 21.84555435 50.8608284 -957.70623779 0 50.94768143 -967.74481201 63.82866287 45.38368988 -966.95019531 85.12838745 45.99251175 -979.8770752 82.99423981 47.57556534 -980.30004883 72.61122894 47.38636398 -980.43823242 72.59207916 47.44641495 -980.18615723 62.30085373 47.00429153 -980.60852051 62.25078201 47.13307571 -979.71087646 83.02081299 47.51931 -976.63977051 29.31225967 45.31227875 -981.0020752 32.25681305 46.19447708 -978.51531982 41.74402237 46.0136261 -980.10443115 41.61739349 46.31010437 -979.01361084 62.4407196 46.74442291 -981.27850342 32.44338989 46.27030182 -980.74798584 41.56649017 46.45671844 -981.30401611 51.85305023 47.00809097 -980.01434326 82.97233582 47.63170242 -980.62481689 72.56626892 47.56612396 -980.19958496 82.94280243 47.74364471 -980.68804932 72.55750275 47.68534851 -980.2623291 82.93276978 47.85519791 -980.625 72.56609344 47.8041687 -980.1998291 82.94259644 47.96643066 -980.4385376 72.59172821 47.92274475 -980.01477051 82.97193146 48.07749557 -979.87756348 82.9937439 48.13300705 -980.30041504 72.61079407 47.98199463 -980.77697754 62.23051453 47.83102798 -980.91589355 62.21418381 47.76804352 -981.10339355 62.1922226 47.64195633 -981.16687012 62.18486786 47.51554108 -981.10327148 62.192379 47.38864136 -980.91571045 62.21448517 47.26117325 -980.77679443 62.23088455 47.1972084 -978.64117432 103.88479614 48.57966614 -979.71142578 83.02023315 48.18854523 -979.29406738 83.08695221 48.2997551 -980.60870361 62.25034714 47.89400482 -980.1862793 62.30029678 48.02002716 -981.44354248 51.8393898 47.07597351 -981.63195801 51.82097626 47.21120453 -981.69580078 51.81472015 47.3457756 -981.63201904 51.82084274 47.47977829 -981.44360352 51.83913803 47.61338043 -981.30407715 51.85274124 47.6801033 -980.74737549 41.56604385 47.8814888 -966.94866943 85.1266861 49.7064209 -972.36407471 84.21868134 49.21483231 -973.19030762 63.14759064 49.05328369 -967.74169922 63.82738876 49.60646057 -954.23931885 65.56908417 50.79870224 -968.79772949 42.54105759 49.50671005 -965.06610107 21.5 49.97854614 -965.06610107 0 50.11107254 -979.28997803 150.42274475 48.96004868 -979.08435059 150.48855591 49.08408356 -978.97662354 155.75947571 49.22016525 -979.3135376 165 49.36108017 -979.20654297 145.23204041 48.87507629 -979.15283203 145.24839783 48.94075775 -978.99353027 145.29725647 49.00669098 -978.73199463 145.37771606 49.07294846 -978.87536621 145.33358765 49.03976822 -978.79669189 134.94589233 48.8886795 -966.72015381 133.03424072 49.93107605 -966.93151855 138.34164429 49.95578003 -975.78076172 135.79516602 49.30213928 -967.22186279 143.6290741 49.98015976 -979.01348877 62.43994904 48.27301788 -978.13458252 83.27348328 48.52330399 -977.50476074 104.11786652 48.77376556 -977.4329834 62.62988663 48.52854538 -976.5703125 83.5271759 48.7494545 -975.97021484 104.43484497 48.97053528 -976.012146 146.22212219 49.41223526 -967.60095215 148.88638306 50.00404739 -968.08013916 154.10971069 50.02737427 -956.5512085 158.01930237 50.65911484 -978.29138184 124.69255066 48.8597374 -975.79302979 114.89104462 49.08111191 -975.72027588 125.34615326 49.19167709 -971.72009277 115.83810425 49.4573555 -971.73419189 126.37280273 49.53811646 -966.45751953 117.08165741 49.85646439 -966.57818604 127.7208786 49.90627289 -953.29394531 120.26777649 50.72176743 -971.83709717 105.29886627 49.37652588 -966.50292969 106.43339539 49.80650711 -953.18322754 109.34018707 50.73735428 -966.67462158 95.78102112 49.75647736 -966.92987061 138.34436035 47.5140152 -967.59893799 148.88922119 47.8167038 -954.96472168 147.43667603 47.07935333 -968.07800293 154.11257935 47.96724319 -978.73065186 145.37867737 48.67879868 -978.37011719 145.49009705 48.61348724 -978.6416626 155.87265015 48.81437683 -977.76135254 165 48.84049606 -979.08343506 150.48924255 48.83679962 -979.22167969 155.6829071 48.93069077 -978.7956543 134.94667053 48.52218628 -978.92041016 134.9118042 48.55875778 -978.93969727 140.10540771 48.65145874 -979.08880615 134.86479187 48.6319046 -979.10418701 140.05711365 48.72073364 -979.14587402 134.84881592 48.70509338 -979.15997314 140.04069519 48.79008865 -979.0892334 134.86447144 48.77837753 -979.10467529 140.05677795 48.85957336 -978.92132568 134.91116333 48.8518486 -978.94067383 140.10475159 48.92927933 -979.15240479 145.24873352 48.80955124 -978.87420654 145.33442688 48.71146393 -978.99255371 145.29792786 48.74413681 -979.0489502 103.80215454 47.9057312 -979.21173096 103.76895142 47.95411301 -978.83972168 124.55490875 48.33283997 -978.9319458 129.71673584 48.77440262 -979.10321045 129.67158508 48.69717407 -979.16094971 129.65644836 48.6200943 -979.10272217 129.67190552 48.54306793 -978.93109131 129.71736145 48.46604538 -978.6831665 124.59436035 48.2923317 -978.64007568 103.88572693 47.80872726 -979.29345703 83.08769989 47.40642166 -978.13397217 83.27451324 47.17890549 -977.43353271 62.63083267 46.48108673 -978.84069824 124.5541687 48.73752594 -978.96966553 124.52178192 48.69694901 -979.11669922 114.13059998 48.54202652 -979.14361572 124.47823334 48.61595917 -979.29473877 114.09043121 48.4535141 -979.20227051 124.46364594 48.53508377 -979.35479736 114.07696533 48.36504745 -979.14312744 124.47854614 48.45422363 -979.29431152 114.0907135 48.27651215 -978.96887207 124.52238464 48.37332153 -979.11590576 114.13114929 48.18785477 -979.64825439 93.3554306 47.81703186 -979.51226807 93.38009644 47.76481628 -979.34606934 103.74157715 48.00241852 -979.83178711 93.32218933 47.92121506 -979.52746582 103.7046814 48.09883499 -979.89404297 93.3108902 48.02509308 -979.58898926 103.6921463 48.19504166 -979.83209229 93.32195282 48.1287384 -979.52783203 103.704422 48.29109955 -979.64880371 93.35498047 48.23228455 -979.34674072 103.74108124 48.38713074 -979.51293945 93.37953949 48.28406906 -979.21252441 103.76833344 48.43517303 -979.04986572 103.80142212 48.48327255 -978.68438721 124.59349823 48.77817154 -978.26605225 135.09428406 48.99973679 -977.503479 104.11914825 47.61357117 -976.56988525 83.52844238 46.94872665 -975.96893311 104.43642426 47.41653442 -975.79138184 114.89277649 47.65047836 -975.71832275 125.34801483 47.88439941 -975.77850342 135.79716492 48.1182251 -976.00976562 146.22422791 48.35168839 -976.45709229 156.61199951 48.5845108 -978.37176514 145.48884583 49.13962173 -978.64569092 134.98805237 48.92560196 -953.26086426 98.40205383 45.37055206 -966.50299072 106.43553162 46.60145187 -966.45697021 117.08399963 46.90583801 -966.5769043 127.72341156 47.21007538 -977.503479 -104.11914825 47.61357117 -978.64007568 -103.88572693 47.80872726 -979.29345703 -83.08769989 47.40642166 -978.93109131 -129.71736145 48.46604538 -978.92041016 -134.9118042 48.55875778 -979.08880615 -134.86479187 48.6319046 -979.10418701 -140.05711365 48.72073364 -967.22186279 -143.6290741 49.98015976 -967.60095215 -148.88638306 50.00404739 -955.67437744 -152.76138306 50.67028046 -972.36407471 -84.21868134 49.21483231 -966.94866943 -85.1266861 49.7064209 -967.74169922 -63.82738876 49.60646057 -981.51171875 -41.50642014 46.6747818 -981.28479004 -41.52422714 46.60232925 -980.18615723 -62.30085373 47.00429153 -979.58660889 -160.80737305 49.11463928 -979.22143555 -155.68293762 48.93062973 -978.97528076 -155.76045227 48.87186432 -979.59057617 -160.81523132 49.12569809 -956.68127441 -21.84593964 42.70783234 -965.06610107 -21.5 43.58505249 -968.90130615 -24.08876419 44.12782288 -955.33789062 -43.70198441 43.46833038 -969.83441162 -24.71860695 44.26248169 -976.56323242 -29.26056862 45.29925537 -975.57965088 -28.59670258 45.1357193 -968.80236816 -42.54190826 44.77508545 -981.47796631 -32.57805252 46.32875443 -980.37646484 -31.8345356 46.03881836 -980.74798584 -41.56649017 46.45671844 -980.10443115 -41.61739349 46.31010437 -979.01361084 -62.4407196 46.74442291 -982.25158691 -33.1002388 46.60815811 -982.13562012 -33.02191925 46.55776978 -982.53375244 -33.29069138 46.76079559 -982.45892334 -33.24020386 46.71414566 -981.87982178 -41.47761917 46.81901169 -982.68988037 -33.3960762 46.89559937 -982.64080811 -33.36297226 46.84391022 -982.01977539 -41.46669769 46.89081192 -982.59350586 -33.33104324 46.8038826 -982.75140381 -33.43764114 47.05169296 -982.75024414 -33.43680573 47.02290726 -982.20690918 -41.46346664 47.03247452 -982.74194336 -33.43122864 46.98642349 -982.72784424 -33.42169189 46.95275497 -982.70062256 -33.40333176 46.90940857 -982.64837646 -33.36808014 47.23503494 -982.6897583 -33.39596558 47.19215775 -982.20715332 -41.45614624 47.31931305 -982.70623779 -33.40711594 47.1709938 -982.73327637 -33.42536545 47.12505722 -982.61077881 -33.342659 47.26703644 -982.01971436 -41.46649551 47.45875931 -982.52606201 -33.28549576 47.32600784 -981.87963867 -41.47737503 47.52921295 -982.35491943 -33.16998291 47.4178772 -981.71002197 -41.49058151 47.59963226 -982.17559814 -33.04893112 47.49468994 -981.51141357 -41.50608826 47.67004013 -981.28436279 -41.5238533 47.74047089 -981.79156494 -32.78971863 47.62676239 -965.06610107 -21.5 49.97854614 -956.67205811 -21.84555435 50.8608284 -955.33050537 -43.70121384 50.82966614 -954.23931885 -65.56908417 50.79870224 -953.80987549 -76.50868225 50.78331375 -953.47607422 -87.45307159 50.76800156 -954.96490479 -147.43414307 50.68030548 -954.40368652 -142.0453949 50.68932724 -953.9743042 -136.61598206 50.69768524 -953.66003418 -131.17478943 50.70584488 -953.29394531 -120.26777649 50.72176743 -953.18322754 -109.34018707 50.73735428 -968.66802979 -159.29304504 50.05004883 -969.35717773 -164.41917419 50.0717926 -957.6072998 -163.19554138 50.64661789 -976.45947266 -156.60987854 49.52169418 -978.64331055 -155.87139893 49.27930832 -979.5880127 -160.81092834 49.11737442 -979.76361084 -164.99935913 49.17454529 -979.75524902 -164.99794006 49.16620636 -978.6416626 -155.87265015 48.81437683 -976.45709229 -156.61199951 48.5845108 -957.60656738 -163.19813538 47.63940811 -968.66589355 -159.29589844 48.11713028 -953.97473145 -136.61836243 46.70090103 -954.40380859 -142.04785156 46.89046097 -953.66070557 -131.17707825 46.51115036 -953.1854248 -109.34210968 45.75099945 -953.29534912 -120.26990509 46.13124084 -953.4798584 -87.45462799 44.9899826 -953.26086426 -98.40205383 45.37055206 -954.24493408 -65.57025146 44.22902679 -980.30004883 -72.61122894 47.38636398 -980.60852051 -62.25078201 47.13307571 -979.71087646 -83.02081299 47.51931 -976.56988525 -83.52844238 46.94872665 -977.43353271 -62.63083267 46.48108673 -978.51531982 -41.74402237 46.0136261 -979.60046387 -31.31072998 45.86629868 -980.77679443 -62.23088455 47.1972084 -981.30401611 -51.85305023 47.00809097 -981.71026611 -41.49087143 46.74700546 -981.63195801 -51.82097626 47.21120453 -981.44354248 -51.8393898 47.07597351 -981.10327148 -62.192379 47.38864136 -980.91571045 -62.21448517 47.26117325 -980.62481689 -72.56626892 47.56612396 -980.43823242 -72.59207916 47.44641495 -967.74481201 -63.82866287 45.38368988 -966.95019531 -85.12838745 45.99251175 -966.50299072 -106.43553162 46.60145187 -980.01477051 -82.97193146 48.07749557 -979.87756348 -82.9937439 48.13300705 -980.4385376 -72.59172821 47.92274475 -980.30041504 -72.61079407 47.98199463 -980.91589355 -62.21418381 47.76804352 -980.77697754 -62.23051453 47.83102798 -981.44360352 -51.83913803 47.61338043 -980.1862793 -62.30029678 48.02002716 -980.60870361 -62.25034714 47.89400482 -979.71142578 -83.02023315 48.18854523 -980.1998291 -82.94259644 47.96643066 -980.625 -72.56609344 47.8041687 -981.10339355 -62.1922226 47.64195633 -981.63201904 -51.82084274 47.47977829 -981.3626709 -32.50018311 47.74665833 -980.74737549 -41.56604385 47.8814888 -981.30407715 -51.85274124 47.6801033 -977.26531982 -29.73448563 48.48636246 -980.33911133 -31.80929184 47.97652817 -978.51385498 -41.74339294 48.30781174 -980.10357666 -41.61687851 48.02290726 -979.01348877 -62.43994904 48.27301788 -978.97662354 -155.75947571 49.22016525 -979.22229004 -155.68139648 49.16041565 -978.79669189 -134.94589233 48.8886795 -978.92132568 -134.91116333 48.8518486 -978.94067383 -140.10475159 48.92927933 -979.0892334 -134.86447144 48.77837753 -979.10467529 -140.05677795 48.85957336 -979.11669922 -114.13059998 48.54202652 -978.96966553 -124.52178192 48.69694901 -978.84069824 -124.5541687 48.73752594 -978.9319458 -129.71673584 48.77440262 -976.012146 -146.22212219 49.41223526 -975.78076172 -135.79516602 49.30213928 -978.26605225 -135.09428406 48.99973679 -978.37176514 -145.48884583 49.13962173 -978.73199463 -145.37771606 49.07294846 -979.08435059 -150.48855591 49.08408356 -979.34674072 -103.74108124 48.38713074 -979.21252441 -103.76833344 48.43517303 -979.04986572 -103.80142212 48.48327255 -979.52783203 -103.704422 48.29109955 -979.29473877 -114.09043121 48.4535141 -979.14361572 -124.47823334 48.61595917 -979.10321045 -129.67158508 48.69717407 -972.90576172 -26.79179192 49.05803299 -974.25408936 -42.08824539 48.89193726 -977.4329834 -62.62988663 48.52854538 -978.13458252 -83.27348328 48.52330399 -979.29406738 -83.08695221 48.2997551 -978.64117432 -103.88479614 48.57966614 -978.68438721 -124.59349823 48.77817154 -979.51293945 -93.37953949 48.28406906 -979.64880371 -93.35498047 48.23228455 -979.83209229 -93.32195282 48.1287384 -968.79772949 -42.54105759 49.50671005 -973.19030762 -63.14759064 49.05328369 -976.5703125 -83.5271759 48.7494545 -975.97021484 -104.43484497 48.97053528 -977.50476074 -104.11786652 48.77376556 -975.79302979 -114.89104462 49.08111191 -978.29138184 -124.69255066 48.8597374 -975.72027588 -125.34615326 49.19167709 -978.99353027 -145.29725647 49.00669098 -978.87536621 -145.33358765 49.03976822 -978.64569092 -134.98805237 48.92560196 -968.08013916 -154.10971069 50.02737427 -956.5512085 -158.01930237 50.65911484 -966.50292969 -106.43339539 49.80650711 -966.45751953 -117.08165741 49.85646439 -966.57818604 -127.7208786 49.90627289 -966.72015381 -133.03424072 49.93107605 -966.93151855 -138.34164429 49.95578003 -971.73419189 -126.37280273 49.53811646 -971.72009277 -115.83810425 49.4573555 -971.83709717 -105.29886627 49.37652588 -966.67462158 -95.78102112 49.75647736 -953.2578125 -98.4003067 50.75273895 -979.15283203 -145.24839783 48.94075775 -955.67401123 -152.76396179 47.26724243 -954.96472168 -147.43667603 47.07935333 -967.59893799 -148.88922119 47.8167038 -966.92987061 -138.34436035 47.5140152 -979.41558838 -155.61276245 49.04500961 -979.28997803 -150.42274475 48.96004868 -979.08343506 -150.48924255 48.83679962 -978.73065186 -145.37867737 48.67879868 -982.27233887 -41.45759201 47.17551041 -981.69580078 -51.81472015 47.3457756 -981.16687012 -62.18486786 47.51554108 -980.68804932 -72.55750275 47.68534851 -980.2623291 -82.93276978 47.85519791 -979.89404297 -93.3108902 48.02509308 -979.58898926 -103.6921463 48.19504166 -979.35479736 -114.07696533 48.36504745 -979.20227051 -124.46364594 48.53508377 -979.16094971 -129.65644836 48.6200943 -979.14587402 -134.84881592 48.70509338 -979.15997314 -140.04069519 48.79008865 -979.20654297 -145.23204041 48.87507629 -956.55065918 -158.02189636 47.45399094 -968.07800293 -154.11257935 47.96724319 -976.00976562 -146.22422791 48.35168839 -978.7956543 -134.94667053 48.52218628 -978.87420654 -145.33442688 48.71146393 -978.93969727 -140.10540771 48.65145874 -978.99255371 -145.29792786 48.74413681 -979.15240479 -145.24873352 48.80955124 -978.83972168 -124.55490875 48.33283997 -978.37011719 -145.49009705 48.61348724 -978.26452637 -135.09547424 48.41240311 -975.77850342 -135.79716492 48.1182251 -978.28997803 -124.69366455 48.21120071 -975.71832275 -125.34801483 47.88439941 -966.5769043 -127.72341156 47.21007538 -966.45697021 -117.08399963 46.90583801 -975.79138184 -114.89277649 47.65047836 -979.0489502 -103.80215454 47.9057312 -978.6831665 -124.59436035 48.2923317 -978.64440918 -134.98899841 48.48560333 -980.19958496 -82.94280243 47.74364471 -980.01434326 -82.97233582 47.63170242 -979.83178711 -93.32218933 47.92121506 -979.64825439 -93.3554306 47.81703186 -979.52746582 -103.7046814 48.09883499 -979.34606934 -103.74157715 48.00241852 -979.29431152 -114.0907135 48.27651215 -979.11590576 -114.13114929 48.18785477 -979.14312744 -124.47854614 48.45422363 -978.96887207 -124.52238464 48.37332153 -979.10272217 -129.67190552 48.54306793 -979.8770752 -82.99423981 47.57556534 -979.51226807 -93.38009644 47.76481628 -979.21173096 -103.76895142 47.95411301 -982.36608887 -33.17752838 46.6634407 -978.13397217 -83.27451324 47.17890549 -975.96893311 -104.43642426 47.41653442 -982.01654053 -32.94160843 46.51036072 -982.74572754 -33.43375397 47.09036255</float_array>
          <technique_common>
            <accessor source="#pos_0-array" count="1941" stride="3">
              <param name="X" type="float"/>
              <param name="Y" type="float"/>
              <param name="Z" type="float"/>
            </accessor>
          </technique_common>
        </source>
        <source id="norm_0">
          <float_array id="norm_0-array" count="3501">1 0 0 0 -1 0 -0.1944 0.01945 -0.98073 -0.50345 -0.03326 0.86339 -0.05644 0.02157 -0.99817 -0.12267 0.03545 -0.99181 -0.81527 0.03969 0.57772 -0.11987 -2E-05 0.99279 -0.13399 0.00029 0.99098 -0.1717 -0.0014 0.98515 -0.33461 0.0069 0.94233 -0.30683 0.00514 0.95175 -0.29663 0.0048 0.95498 -0.27843 0.00366 0.96045 -0.40825 0.01153 0.9128 -0.37393 0.00914 0.92741 -0.34586 0.00732 0.93826 -0.58151 0.02302 0.81321 -0.48798 0.01586 0.87271 -0.45016 0.01394 0.89284 -0.384 0.00923 0.92329 -0.59762 0.02312 0.80145 -0.74032 0.03929 0.67111 -0.68704 0.03305 0.72586 -0.8992 0.06255 -0.43305 -0.93083 0.06407 -0.35979 -0.95547 0.0653 -0.28779 -0.97664 0.0664 -0.20438 -0.78352 0.05744 -0.6187 -0.8174 0.05885 -0.57306 -0.86267 0.06085 -0.50209 -0.9878 0.06704 -0.14054 -0.99567 0.06749 -0.06394 -0.90937 0.06108 -0.41147 -0.99822 0.05965 -0 -0.90902 0.04758 0.41404 -0.98756 0.0621 0.14447 -0.92159 0.05091 0.3848 -0.54309 0.04738 -0.83834 -0.58436 0.04987 -0.80996 -0.61807 0.05196 -0.78441 -0.67637 0.05605 -0.73443 -0.44414 0.04252 -0.89495 -0.39321 0.04054 -0.91855 -0.36805 0.03893 -0.92899 -0.32559 0.03781 -0.94475 -0.34426 0.03831 -0.93809 -0.30654 0.03631 -0.95117 -0.31742 0.0372 -0.94756 -0.10564 0.04106 -0.99356 -0.10568 0.04211 -0.99351 -0.11344 0.03939 -0.99276 -0.07388 0.03724 -0.99657 -0.07912 0.03988 -0.99607 -0.08294 0.03878 -0.9958 -0.08638 0.04197 -0.99538 -0.09265 0.04031 -0.99488 -0.0928 0.04385 -0.99472 -0.0991 0.04182 -0.9942 -0.06318 0.03602 -0.99735 -0.05944 0.03412 -0.99765 -0.05843 0.03496 -0.99768 -0.0579 0.03281 -0.99778 -0.05484 0.03401 -0.99792 -0.05376 0.0317 -0.99805 -0.05273 0.0329 -0.99807 -0.0521 0.03073 -0.99817 -0.0509 0.03206 -0.99819 -0.04281 0.02366 -0.9988 -0.04395 0.02866 -0.99862 -0.04467 0.02666 -0.99865 -0.04573 0.02968 -0.99851 -0.04771 0.02751 -0.99848 -0.04722 0.03057 -0.99842 -0.06009 0.01965 -0.998 -0.20136 0.00986 -0.97947 -0.42253 -0.00463 -0.90633 -0.25347 -0.00859 -0.9673 -0.30181 -0.00847 -0.95333 -0.57914 -0.01829 -0.81503 -0.88974 -0.30347 -0.34098 -0.80843 0.25953 -0.52829 -0.13882 -0.98038 -0.13997 -0.26757 -0.03594 0.96287 -0.29467 -0.03568 0.95493 -0.61486 -0.61002 0.49981 -0.3163 -0.92586 0.20672 -0.53896 0.47812 0.69348 0.20672 -0.95724 -0.20238 -0.40346 0.82148 0.40299 -0.03052 -0.99849 -0.04576 -0.40176 0.7926 -0.45865 -0.31625 -0.94521 -0.08098 -0.83924 -0.03066 -0.5429 -0.99179 -0.04235 -0.12064 -0.99429 -0.0454 0.09661 -0.88072 -0.01932 0.47325 -0.94834 -0.10416 0.29966 -0.32258 -0.94427 0.06553 -0.87416 -0.04582 0.48347 -0.62291 -0.04118 0.78121 -0.06778 -0.01488 0.99759 -0.09552 -0.01677 0.99529 -0.10392 -0.01907 0.9944 -0.06186 -0.01689 0.99794 -0.05598 -0.01176 0.99836 -0.05465 -0.00184 0.9985 -0.05249 -0.01129 0.99856 -0.05043 -0.01196 0.99866 -0.04927 -0.01304 0.9987 -0.04527 -0.00014 0.99897 -0.04767 -0.00329 0.99886 -0.04699 -0.00418 0.99889 -0.04916 -0.00262 0.99879 -0.04891 -0.00342 0.9988 -0.05084 -0.00215 0.9987 -0.05074 -0.00248 0.99871 -0.0527 -0.00127 0.99861 -0.05429 -0.00164 0.99852 -0.05269 -0.0001 0.99861 -0.05292 -0.00052 0.9986 -0.06638 0.00302 0.99779 -0.06631 0.00271 0.9978 -0.07036 0.004 0.99751 -0.07028 0.00354 0.99752 -0.07393 0.00481 0.99725 -0.08593 0.0067 0.99628 -0.09373 0.00906 0.99556 -0.09379 0.01048 0.99554 -0.09734 0.00856 0.99521 -0.10043 0.01133 0.99488 -0.11116 0.04349 -0.99285 -0.09956 0.03541 -0.9944 -0.0999 0.03958 -0.99421 -0.08939 0.0329 -0.99545 -0.08999 0.03775 -0.99523 -0.07958 0.03145 -0.99633 -0.40225 0.03306 -0.91493 -0.29484 0.0305 -0.95506 -0.17971 0.02836 -0.98331 -0.18562 0.02993 -0.98216 -0.18564 0.03021 -0.98215 -0.27368 0.03555 -0.96116 -0.26417 0.03443 -0.96386 -0.26405 0.03261 -0.96396 -0.30644 0.03461 -0.95126 -0.29518 0.03395 -0.95484 -0.34411 0.03571 -0.93825 -0.42944 0.03957 -0.90223 -0.39311 0.03856 -0.91868 -0.45863 0.04163 -0.88765 -0.45871 0.04348 -0.88752 -0.50223 0.0454 -0.86354 -0.38271 0.03211 -0.92331 -0.5433 0.03716 -0.83871 -0.52103 0.03594 -0.85278 -0.88389 0.04419 -0.4656 -0.87237 0.04376 -0.48689 -0.8838 0.02862 0.46699 -0.87244 0.02812 0.48792 -0.53749 0.00884 0.84322 -0.51551 0.00827 0.85685 -0.37545 0.00181 0.92684 -0.39456 0.00241 0.91887 -0.39483 0.00476 0.91874 -0.4134 0.00544 0.91053 -0.5378 0.01217 0.84298 -0.55899 0.01282 0.82908 -0.88381 0.03346 0.46664 -0.8941 0.03396 0.44658 -0.88385 0.04842 -0.46526 -0.89426 0.04886 -0.44487 -0.54348 0.03941 -0.8385 -0.56487 0.0407 -0.82418 -0.40243 0.03485 -0.91479 -0.42142 0.03587 -0.90615 -0.25674 -0.00495 0.96647 -0.2571 -0.0026 0.96638 -0.28582 -0.00063 0.95828 -0.42157 0.03762 -0.90602 -0.58538 0.04423 -0.80955 -0.56499 0.0429 -0.82398 -0.90317 0.05332 -0.42596 -0.89417 0.05289 -0.44459 -0.90295 0.03905 0.42797 -0.89406 0.03859 0.44629 -0.57944 0.01679 0.81484 -0.55923 0.01609 0.82886 -0.43204 0.00853 0.90181 -0.41362 0.00777 0.91042 -0.35096 0.00421 0.93638 -0.35078 0.00248 0.93645 -0.38959 0.00377 0.92098 -0.31684 -0.00089 0.94848 -0.58546 0.04647 -0.80937 -0.90957 0.05759 -0.41154 -0.90305 0.05724 -0.42571 -0.90913 0.04383 0.41421 -0.90286 0.04349 0.42772 -0.59762 0.02075 0.80151 -0.57962 0.02005 0.81464 -0.45003 0.01169 0.89293 -0.43222 0.01087 0.9017 -0.38391 0.00787 0.92334 -0.41966 0.00939 0.90763 -0.33444 0.00438 0.94241 -0.28611 0.00211 0.95819 -0.29649 0.00282 0.95503 -0.25403 0.00041 0.9672 -0.2542 0.0028 0.96715 -0.23266 0.00066 0.97256 -0.08972 -0.00412 0.99596 -0.08778 -0.00141 0.99614 -0.08792 -0.00031 0.99613 -0.0983 0.00631 0.99514 -0.07825 0.00532 0.99692 -0.08604 0.00725 0.99627 -0.10089 -0.00091 0.9949 -0.10069 -0.00254 0.99491 -0.11204 0.0009 0.9937 -0.11213 0.00199 0.99369 -0.09787 0.00118 0.9952 -0.10882 0.00961 0.99402 -0.10485 0.00785 0.99446 -0.10478 0.00613 0.99448 -0.11294 0.0093 0.99356 -0.51021 -0.02642 0.85965 -0.50544 -0.02609 0.86247 -0.23006 -0.02042 0.97296 -0.23213 -0.01363 0.97259 -0.3356 -0.0266 0.94163 -0.21068 -0.03655 0.97687 -0.77118 -0.0228 0.6362 -0.3788 -0.01349 0.92538 -0.51136 -0.02176 0.85909 -0.22082 -0.01586 0.97519 -0.07152 -0.00749 0.99741 -0.07123 -0.00851 0.99742 -0.2146 0.00094 0.9767 -0.21449 -0.0005 0.97672 -0.21077 -0.00083 0.97753 -0.21054 -0.00286 0.97758 -0.18851 -0.00512 0.98206 -0.18836 -0.00611 0.98208 -0.16676 -0.00803 0.98596 -0.17623 -0.00233 0.98435 -0.17631 -0.00128 0.98433 -0.15918 -0.00353 0.98724 -0.15914 -0.00387 0.98725 -0.14215 -0.00589 0.98983 -0.14207 -0.00639 0.98984 -0.12553 -0.00813 0.99206 -0.06684 -0.01059 0.99771 -0.05276 -0.0093 0.99856 -0.05247 -0.00663 0.9986 -0.04536 -0.00544 0.99896 -0.04559 -0.00479 0.99895 -0.05575 -0.00413 0.99844 -0.05619 -0.00769 0.99839 -0.05756 -0.00302 0.99834 -0.05809 -0.00696 0.99829 -0.05949 -0.00194 0.99823 -0.12563 -0.00962 0.99203 -0.0897 -0.00991 0.99592 -0.0846 -0.00775 0.99638 -0.0738 -0.00774 0.99724 -0.0698 -0.00546 0.99755 -0.06429 -0.0054 0.99792 -0.09045 -0.00663 0.99588 -0.07892 -0.00677 0.99686 -0.0746 -0.00436 0.9972 -0.06876 -0.00439 0.99762 -0.06578 0.00076 0.99783 -0.07831 0.00575 0.99691 -0.0734 0.00428 0.99729 -0.07876 0.00449 0.99688 -0.07921 0.00381 0.99685 -0.07809 -0.00268 0.99694 -0.07461 0.00288 0.99721 -0.08951 -0.0054 0.99597 -0.0783 -0.00267 0.99693 -0.07963 -0.0034 0.99682 -0.07337 -0.0035 0.9973 -0.07012 0.00188 0.99754 -0.06237 0.00183 0.99805 -0.06214 0.00079 0.99807 -0.05806 0.00221 0.99831 -0.05867 0.00166 0.99828 -0.05536 0.02514 -0.99815 -0.04833 0.02878 -0.99842 -0.05505 0.02787 -0.99809 -0.05456 0.02636 -0.99816 -0.05257 0.02395 -0.99833 -0.05291 0.02497 -0.99829 -0.05126 0.02306 -0.99842 -0.05424 0.03153 -0.99803 -0.0496 0.02149 -0.99854 -0.18335 0.01715 -0.9829 -0.18241 0.01398 -0.98312 -0.17453 0.01448 -0.98454 -0.17337 0.01089 -0.9848 -0.12238 0.01464 -0.99238 -0.26156 0.01178 -0.96512 -0.23556 0.0113 -0.97179 -0.23844 0.02113 -0.97093 -0.9728 -0.07855 0.21791 -0.969 -0.01444 0.24665 -0.39869 -0.01213 -0.91701 -0.2854 0.01604 -0.95827 -0.40189 0.01485 -0.91557 -0.39181 0.01458 -0.91993 -0.78926 0.00817 -0.61401 -0.78011 0.00813 -0.62559 -0.78999 -0.01218 0.613 -0.78128 -0.01208 0.62407 -0.39719 -0.01553 0.9176 -0.38728 -0.01518 0.92184 -0.40464 -0.03608 0.91376 -0.90785 -0.04253 0.41712 -0.90604 -0.038 0.42148 -0.5077 -0.00074 -0.86153 -0.50838 0.00179 -0.86113 -0.51289 0.00186 -0.85845 -0.51381 0.00579 -0.85788 -0.77227 0.01347 -0.63515 -0.19365 0.01663 -0.98093 -0.22663 0.01623 -0.97385 -0.22613 0.0145 -0.97399 -0.26963 0.01247 -0.96288 -0.3814 0.00983 -0.92436 -0.28906 0.02261 -0.95704 -0.31187 -0.01618 0.94999 -0.27944 -0.01535 0.96004 -0.27986 -0.01374 0.95994 -0.39783 -0.01286 0.91737 -0.40819 -0.01318 0.9128 -0.79051 -0.00745 0.6124 -0.79953 -0.00751 0.60057 -0.78967 0.01234 -0.61341 -0.79882 0.01243 -0.60145 -0.40232 0.01674 -0.91535 -0.41308 0.0171 -0.91053 -0.28582 0.01769 -0.95812 -0.32659 0.0186 -0.94498 -0.25492 0.0187 -0.96678 -0.25579 0.02247 -0.96647 -0.23507 0.0222 -0.97173 -0.23582 0.0262 -0.97144 -0.19638 0.02513 -0.9802 -0.19693 0.02875 -0.98 -0.16756 0.02763 -0.98548 -0.16791 0.03075 -0.98532 -0.29778 -0.01002 0.95458 -0.42057 -0.00758 0.90723 -0.44379 -0.00756 0.8961 -0.80976 0.0026 0.58676 -0.82746 0.00296 0.56152 -0.8089 0.0215 -0.58755 -0.82702 0.02164 -0.56176 -0.42543 0.02167 -0.90473 -0.44898 0.0223 -0.89326 -0.36274 0.02747 -0.93149 -0.28963 0.02581 -0.95679 -0.37328 0.02913 -0.92726 -0.26492 0.02636 -0.96391 -0.26544 0.03004 -0.96366 -0.21951 0.02829 -0.9752 -0.21987 0.03171 -0.97501 -0.22442 0.03207 -0.97396 -0.22448 0.03295 -0.97392 -0.24223 0.03521 -0.96958 -0.47378 0.02895 -0.88017 -0.85899 0.03392 -0.51087 -0.84401 0.03356 -0.53527 -0.8591 0.01687 0.51153 -0.84439 0.01637 0.53548 -0.49198 0.0008 0.8706 -0.46859 0.00046 0.88342 -0.35551 -0.00359 0.93466 -0.33628 -0.00397 0.94175 -0.28247 -0.00578 0.95926 -0.28192 -0.00865 0.9594 -0.20071 -0.01037 0.9796 -0.20014 -0.0127 0.97968 -0.12477 -0.01305 0.9921 -0.11767 -0.01118 0.99299 -0.08376 -0.01102 0.99642 -0.07091 -0.00547 0.99747 -0.06953 -0.00651 0.99756 -0.06011 -0.00627 0.99817 -0.06161 -0.00061 0.9981 -0.05463 -0.00038 0.99851 -0.05845 0.00075 0.99829 -0.14331 -0.01939 0.98949 -0.16779 -0.02115 0.9856 -0.16885 -0.01795 0.98548 -0.2556 -0.01973 0.96658 -0.22039 -0.01732 0.97526 -0.26405 -0.019 0.96432 -0.26461 -0.01707 0.9642 -0.37768 -0.01765 0.92577 -0.38657 -0.01801 0.92209 -0.77197 -0.0171 0.63543 -0.78064 -0.01724 0.62475 -0.77109 0.0035 -0.63671 -0.7796 0.00347 -0.62627 -0.38203 0.01226 -0.92407 -0.39129 0.01244 -0.92018 -0.27018 0.01443 -0.9627 -0.31827 0.01486 -0.94788 -0.2393 0.01588 -0.97082 -0.2401 0.01894 -0.97056 -0.20662 0.01896 -0.97824 -0.20744 0.02241 -0.97799 -0.17356 0.02196 -0.98458 -0.17431 0.0258 -0.98435 -0.14954 0.02513 -0.98844 -0.15004 0.02832 -0.98827 -0.13324 0.03872 -0.99033 -0.12935 0.03639 -0.99093 -0.12922 0.03475 -0.99101 -0.11595 0.02823 -0.99285 -0.11648 0.03272 -0.99265 -0.10325 0.02652 -0.9943 -0.10303 0.02521 -0.99436 -0.1326 0.02598 -0.99083 -0.13228 0.02442 -0.99091 -0.12884 0.02387 -0.99138 -0.13181 0.02309 -0.99101 -0.13092 0.01949 -0.9912 -0.12347 0.02149 -0.99212 -0.12249 0.01795 -0.99231 -0.11626 0.01966 -0.99302 -0.1152 0.0162 -0.99321 -0.11049 0.01751 -0.99372 -0.10911 0.01337 -0.99394 -0.07309 0.01907 -0.99714 -0.04834 -0.00456 0.99882 -0.05405 -0.00532 0.99852 -0.05441 -0.00846 0.99848 -0.06723 -0.00938 0.99769 -0.06801 -0.01204 0.99761 -0.11079 -0.01295 0.99376 -0.11673 -0.01455 0.99306 -0.18757 -0.01512 0.98213 -0.18809 -0.01323 0.98206 -0.24858 -0.01281 0.96853 -0.24934 -0.00963 0.96837 -0.44014 -0.00519 0.89792 -0.3358 -0.00661 0.94191 -0.44454 -0.00351 0.89575 -0.46799 -0.00332 0.88373 -0.8279 0.00981 0.56078 -0.8441 0.01026 0.53609 -0.82733 0.02784 -0.56102 -0.84383 0.02811 -0.53587 -0.44951 0.02537 -0.89292 -0.47338 0.0262 -0.88047 -0.06581 0.03513 -0.99721 -0.07133 0.03516 -0.99683 -0.07108 0.03397 -0.99689 -0.06567 0.0288 -0.99743 -0.06656 0.03251 -0.99725 -0.06143 0.02784 -0.99772 -0.06232 0.03119 -0.99757 -0.05909 0.02659 -0.9979 -0.0586 0.03021 -0.99782 -0.05823 0.02892 -0.99788 -0.05019 0.02977 -0.9983 -0.0491 0.0312 -0.99831 -0.06528 0.01576 -0.99774 -0.06715 0.02123 -0.99752 -0.06768 0.01944 -0.99752 -0.07049 0.02228 -0.99726 -0.07002 0.02078 -0.99733 -0.07494 0.02386 -0.9969 -0.07438 0.02188 -0.99699 -0.08022 0.02585 -0.99644 -0.07945 0.02285 -0.99658 -0.08591 0.02751 -0.99592 -0.08503 0.02373 -0.9961 -0.0918 0.02885 -0.99536 -0.09212 0.03038 -0.99528 -0.07442 0.03005 -0.99677 -0.08039 0.03624 -0.9961 -0.06598 0.03599 -0.99717 -0.07181 0.03783 -0.9967 -0.0438 -0.00652 0.99902 -0.05104 -0.008 0.99866 -0.05127 -0.01018 0.99863 -0.06368 -0.01159 0.9979 -0.06418 -0.01328 0.99785 -0.10529 -0.01501 0.99433 -0.10977 -0.01624 0.99382 -0.17663 -0.01786 0.98412 -0.17736 -0.01543 0.98402 -0.23329 -0.01573 0.97228 -0.23397 -0.01315 0.97215 -0.32007 -0.01242 0.94731 -0.2973 -0.01207 0.95471 -0.40876 -0.01064 0.91258 -0.41987 -0.01092 0.90752 -0.79996 -0.00316 0.60004 -0.80926 -0.00318 0.58744 -0.79913 0.01619 -0.60093 -0.80853 0.01635 -0.58823 -0.41344 0.01879 -0.91034 -0.42495 0.01924 -0.90501 -0.30342 0.01921 -0.95266 -0.30389 0.0213 -0.95247 -0.44808 0.0243 -0.89367 -0.34264 0.02435 -0.93915 -0.34305 0.02674 -0.93894 -0.49743 0.02995 -0.86699 -0.13583 -0.00031 0.99073 -0.1358 -0.00073 0.99074 -0.12225 -0.00416 0.99249 -0.12241 -0.00281 0.99248 -0.10899 -0.00601 0.99402 -0.10917 -0.0049 0.99401 -0.09615 -0.00777 0.99534 -0.09591 -0.0089 0.99535 -0.12548 -0.00836 0.99206 -0.12259 -0.00883 0.99242 -0.16627 -0.01048 0.98602 -0.22775 -0.00928 0.97367 -0.22829 -0.00654 0.97357 -0.36451 -0.0016 0.9312 -0.31658 -0.00268 0.94856 -0.35591 -0.0011 0.93452 -0.37512 -0.0006 0.92698 -0.49247 0.00438 0.87032 -0.51512 0.00485 0.85711 -0.85927 0.02245 0.51103 -0.87236 0.02296 0.48833 -0.85907 0.03884 -0.51039 -0.87236 0.03925 -0.48729 -0.49774 0.03246 -0.86672 -0.5208 0.03359 -0.85302 -0.36303 0.02942 -0.93131 -0.38248 0.03026 -0.92347 -0.32462 0.02863 -0.94541 -0.32487 0.03046 -0.94527 -0.39881 0.03428 -0.91639 -0.3594 0.0335 -0.93258 -0.35956 0.03526 -0.93246 -0.4402 0.03871 -0.89706 -0.44031 0.04047 -0.89693 -0.60346 0.04773 -0.79597 -0.60346 0.05036 -0.7958 -0.73816 0.05557 -0.67233 -0.17406 -0.02451 -0.98443 -0.40242 -0.01716 -0.91529 -0.40181 -0.01447 -0.91561 -0.05306 0.00836 0.99856 -0.09019 0.00132 0.99592 -0.30644 -0.03461 -0.95126 -0.23751 -0.01795 -0.97122 -0.29462 0.03994 0.95478 -0.11343 -0.04244 -0.99264 -0.10558 -0.03942 -0.99363 -0.106 -0.05116 -0.99305 -0.10786 -0.04119 -0.99331 -0.11302 -0.04478 -0.99258 -0.13693 -0.04095 -0.98973 -0.23364 -0.03281 -0.97177 -0.2245 -0.03325 -0.97391 -0.22442 -0.03207 -0.97396 -0.37507 -0.04035 -0.92612 -0.50578 -0.04652 -0.86141 -0.70529 -0.05814 -0.70653 -0.6245 -0.05237 -0.77927 -0.99678 -0.06753 -0.04324 -0.97082 -0.06599 -0.23054 -0.91378 -0.06317 -0.40128 -0.8342 -0.05947 -0.54825 -0.70907 -0.03134 0.70444 -0.77844 -0.03672 0.62664 -0.85367 -0.04337 0.51901 -0.63666 -0.02813 0.77063 -0.4652 -0.01475 0.88508 -0.38402 -0.0096 0.92328 -0.38799 -0.00994 0.92161 -0.3346 -0.00674 0.94234 -0.29654 -0.00349 0.95502 -0.32138 -0.00633 0.94693 -0.11294 -0.00612 0.99358 -0.0938 -0.01083 0.99553 -0.09364 -0.00717 0.99558 -0.08695 -0.00891 0.99617 -0.07849 -0.0071 0.99689 -0.07813 -0.00447 0.99693 -0.0745 -0.0059 0.9972 -0.07414 -0.00366 0.99724 -0.07053 -0.00496 0.9975 -0.04912 0.00276 0.99879 -0.04931 0.00215 0.99878 -0.05039 0.00358 0.99872 -0.05111 0.00128 0.99869 -0.0523 0.0026 0.99863 -0.05296 0.00039 0.9986 -0.05415 0.00163 0.99853 -0.05499 -0.00073 0.99849 -0.05814 0.00049 0.99831 -0.0587 -0.00174 0.99827 -0.06018 -0.00081 0.99819 -0.06328 -0.00281 0.99799 -0.05598 0.01176 0.99836 -0.05465 0.00184 0.9985 -0.05249 0.01129 0.99856 -0.05043 0.01196 0.99866 -0.04927 0.01304 0.9987 -0.04527 0.00014 0.99897 -0.0442 0.00479 0.99901 -0.09552 0.01677 0.99529 -0.10392 0.01907 0.9944 -0.14331 0.01939 0.98949 -0.87982 0.04909 0.47277 -0.77506 0.04833 0.63004 -0.613 0.04576 0.78875 -0.697 -0.06636 -0.71399 -0.54589 0.17891 -0.81853 -0.99182 0.04171 -0.12065 -0.99426 0.04605 0.09661 -0.95241 0.04844 0.30094 -0.39871 0.00623 -0.91706 -0.56367 0.01252 -0.82591 -0.77051 0.02317 -0.637 -0.3145 0.93629 -0.15638 -0.7739 0.38121 -0.50573 -0.68361 -0.24 -0.68926 -0.20136 -0.0088 -0.97948 -0.12239 -0.01126 -0.99242 -0.04281 -0.02366 -0.9988 -0.04959 -0.02833 -0.99837 -0.05072 -0.0215 -0.99848 -0.05644 -0.02157 -0.99817 -0.06562 -0.01674 -0.9977 -0.0601 -0.01357 -0.9981 -0.07309 -0.01907 -0.99714 -0.05053 -0.03086 -0.99825 -0.05066 -0.0313 -0.99823 -0.05442 -0.03295 -0.99797 -0.0609 -0.0341 -0.99756 -0.05848 -0.03516 -0.99767 -0.0579 -0.03281 -0.99778 -0.05443 -0.03417 -0.99793 -0.05456 -0.03348 -0.99795 -0.06598 -0.03599 -0.99717 -0.06604 -0.03629 -0.99716 -0.06768 -0.0391 -0.99694 -0.07013 -0.03817 -0.99681 -0.06996 -0.03724 -0.99685 -0.07754 -0.03735 -0.99629 -0.0777 -0.03854 -0.99623 -0.08555 -0.04047 -0.99551 -0.08561 -0.0399 -0.99553 -0.09432 -0.04272 -0.99462 -0.09625 -0.0417 -0.99448 -0.09909 -0.04433 -0.99409 -0.39881 -0.03428 -0.91639 -0.16771 -0.02898 -0.98541 -0.16775 -0.02934 -0.98539 -0.18574 -0.0316 -0.98209 -0.1858 -0.0324 -0.98205 -0.1949 -0.03411 -0.98023 -0.3594 -0.0335 -0.93258 -0.35956 -0.03526 -0.93246 -0.42944 -0.03957 -0.90223 -0.39311 -0.03856 -0.91868 -0.77193 -0.05696 -0.63315 -0.60345 -0.04963 -0.79585 -0.6035 -0.04724 -0.79597 -0.58548 -0.04697 -0.80932 -0.58536 -0.04369 -0.8096 -0.56503 -0.04345 -0.82393 -0.56484 -0.04015 -0.82422 -0.54352 -0.03997 -0.83844 -0.56229 -0.04848 -0.82552 -0.45868 -0.04295 -0.88756 -0.45862 -0.04132 -0.88767 -0.44033 -0.04078 -0.89691 -0.44018 -0.03841 -0.89709 -0.42159 -0.03793 -0.90599 -0.4214 -0.03556 -0.90618 -0.40246 -0.03515 -0.91476 -0.16324 -0.0309 -0.9861 -0.12935 -0.03648 -0.99093 -0.12877 -0.02885 -0.99125 -0.11665 -0.03417 -0.99258 -0.1158 -0.027 -0.99291 -0.10418 -0.0323 -0.99403 -0.1039 -0.03059 -0.99412 -0.3754 -0.00151 0.92686 -0.39459 -0.00271 0.91885 -0.39479 -0.00446 0.91876 -0.41343 -0.00574 0.91052 -0.41359 -0.00746 0.91043 -0.28575 0.00125 0.9583 -0.51544 -0.00772 0.85689 -0.53754 -0.00938 0.84318 -0.53775 -0.01162 0.84302 -0.55903 -0.01336 0.82904 -0.55919 -0.01554 0.8289 -0.57947 -0.01733 0.81481 -0.57959 -0.01955 0.81467 -0.26684 -0.00378 0.96373 -0.25416 -0.00217 0.96716 -0.25403 -0.00041 0.9672 -0.29649 -0.00282 0.95503 -0.28611 -0.00211 0.95819 -0.33444 -0.00438 0.94241 -0.41966 -0.00939 0.90763 -0.38391 -0.00787 0.92334 -0.45005 -0.01198 0.89292 -0.45013 -0.01337 0.89286 -0.56155 -0.02133 0.82717 -0.16528 0.00252 0.98624 -0.17637 0.00042 0.98432 -0.1762 0.0026 0.98435 -0.08418 -0.00561 0.99643 -0.0887 -0.00584 0.99604 -0.08858 -0.00488 0.99606 -0.08273 0.0016 0.99657 -0.07921 -0.00381 0.99685 -0.23323 0.01016 0.97237 -0.963 0.07084 -0.26004 -0.9562 0.00344 -0.29271 -0.40454 0.04207 0.91355 -0.27944 0.01535 0.96004 -0.39728 0.01516 0.91757 -0.38719 0.01557 0.92187 -0.29778 0.01002 0.95458 -0.2973 0.01207 0.95471 -0.06723 0.00938 0.99769 -0.06801 0.01204 0.99761 -0.11714 0.01308 0.99303 -0.11031 0.0145 0.99379 -0.17748 0.01505 0.98401 -0.17655 0.01812 0.98412 -0.2556 0.01973 0.96658 -0.23011 0.02041 0.97295 -0.3358 0.00661 0.94191 -0.44014 0.00519 0.89792 -0.28187 0.00891 0.95941 -0.46807 0.00281 0.88369 -0.44444 0.00403 0.8958 -0.44388 0.00708 0.89606 -0.42046 0.00807 0.90727 -0.41996 0.01048 0.90748 -0.40866 0.01109 0.91262 -0.13051 0.00074 0.99145 -0.1359 -0.0006 0.99072 -0.13558 0.00345 0.99076 -0.15934 0.00219 0.98722 -0.15899 0.00515 0.98727 -0.18872 0.00384 0.98202 -0.18817 0.00731 0.98211 -0.2284 0.00593 0.97355 -0.22765 0.00981 0.97369 -0.2494 0.00935 0.96835 -0.24853 0.01304 0.96854 -0.32007 0.01242 0.94731 -0.27986 0.01374 0.95994 -0.40828 0.01277 0.91277 -0.39773 0.01328 0.91741 -0.59755 -0.02424 0.80147 -0.59748 -0.02124 0.8016 -0.4322 -0.01056 0.90172 -0.43207 -0.00883 0.9018 -0.35096 -0.00421 0.93638 -0.35078 -0.00248 0.93645 -0.38959 -0.00377 0.92098 -0.31684 0.00089 0.94848 -0.31658 0.00268 0.94856 -0.37516 0.00031 0.92696 -0.35586 0.00139 0.93454 -0.51518 -0.00538 0.85707 -0.49239 -0.00383 0.87036 -0.21872 -0.00064 0.97579 -0.21454 -3E-05 0.97672 -0.21449 0.0005 0.97672 -0.21077 0.00083 0.97753 -0.2104 0.00412 0.97761 -0.25719 0.00197 0.96636 -0.25665 0.00554 0.96649 -0.36451 0.0016 0.9312 -0.28247 0.00578 0.95926 -0.35556 0.00331 0.93465 -0.33622 0.00426 0.94177 -0.49206 -0.00133 0.87056 -0.4685 8E-05 0.88346 -0.10043 -0.00871 0.99491 -0.10489 -0.00892 0.99444 -0.10485 -0.00785 0.99446 -0.09818 -0.0049 0.99516 -0.09778 -0.00019 0.99521 -0.10105 -0.00035 0.99488 -0.10055 0.00369 0.99493 -0.10943 0.00333 0.99399 -0.10877 0.00739 0.99404 -0.12578 0.00688 0.99203 -0.12548 0.00836 0.99206 -0.12259 0.00883 0.99242 -0.12563 0.00962 0.99203 -0.38665 0.01768 0.92206 -0.26461 0.01707 0.9642 -0.31187 0.01618 0.94999 -0.23324 0.01591 0.97229 -0.23404 0.01292 0.97214 -0.20003 0.01315 0.9797 -0.20085 0.00981 0.97957 -0.16627 0.01048 0.98602 -0.16701 0.0068 0.98593 -0.14187 0.00761 0.98986 -0.14236 0.00459 0.9898 -0.12209 0.00545 0.9925 -0.12258 0.00141 0.99246 -0.1118 0.00197 0.99373 -0.11204 -0.00091 0.9937 -0.11541 -0.00181 0.99332 -0.06778 0.01488 0.99759 -0.06186 0.01689 0.99794 -0.06368 0.01159 0.9979 -0.05031 0.01008 0.99868 -0.05194 0.00819 0.99862 -0.04489 0.00675 0.99897 -0.04587 0.00397 0.99894 -0.26753 0.04026 0.96271 -0.21064 0.04099 0.9767 -0.37071 0.02767 0.92834 -0.16779 0.02115 0.9856 -0.16894 0.01768 0.98547 -0.10491 0.01612 0.99435 -0.11009 0.01521 0.9938 -0.06418 0.01328 0.99785 -0.06684 0.01059 0.99771 -0.0516 0.00919 0.99863 -0.05357 0.00681 0.99854 -0.04669 0.00567 0.99889 -0.06987 -0.00072 0.99756 -0.06453 0.00441 0.99791 -0.06541 0.00074 0.99786 -0.06035 0.00536 0.99816 -0.06123 0.00204 0.99812 -0.0583 0.00622 0.99828 -0.05916 0.00314 0.99824 -0.05642 0.00689 0.99838 -0.05719 0.00428 0.99835 -0.04752 0.00322 0.99887 -0.04782 0.00449 0.99885 -0.05533 0.00549 0.99845 -0.05467 0.00761 0.99848 -0.07123 0.00851 0.99742 -0.07152 0.00749 0.99741 -0.07091 0.00547 0.99747 -0.06953 0.00651 0.99756 -0.06921 0.00774 0.99757 -0.07433 0.00551 0.99722 -0.07402 0.00683 0.99723 -0.07943 0.00434 0.99683 -0.07963 0.0034 0.99682 -0.06894 0.00357 0.99761 -0.07442 -0.00191 0.99723 -0.06615 -0.00185 0.99781 -0.0665 -0.00363 0.99778 -0.37759 0.01798 0.9258 -0.37694 0.0204 0.92601 -0.26405 0.019 0.96432 -0.22039 0.01732 0.97526 -0.22088 0.01566 0.97518 -0.18747 0.01549 0.98215 -0.18821 0.01276 0.98204 -0.11714 0.01308 0.99303 -0.12523 0.01121 0.99206 -0.08376 0.01102 0.99642 -0.08404 0.00995 0.99641 -0.09019 0.00776 0.99589 -0.0899 0.00901 0.99591 -0.0964 0.00656 0.99532 -0.09668 0.00522 0.9953 -0.08358 0.00555 0.99649 -0.09001 0.00236 0.99594 -0.07351 0.00279 0.99729 -0.07906 -0.00297 0.99687 -0.06693 -0.00273 0.99775 -0.07038 -0.00411 0.99751 -0.0467 -0.029 -0.99849 -0.05505 -0.02787 -0.99809 -0.05536 -0.02514 -0.99815 -0.51283 -0.00164 -0.85849 -0.26156 -0.01178 -0.96512 -0.23555 -0.0113 -0.9718 -0.50818 -0.00205 -0.86125 -0.50626 0.00511 -0.86237 -0.90983 -0.0441 0.41264 -0.90287 -0.04323 0.42774 -0.90295 -0.03933 0.42795 -0.89406 -0.0383 0.4463 -0.8941 -0.03425 0.44656 -0.88381 -0.03316 0.46666 -0.8838 -0.02891 0.46697 -0.87243 -0.02781 0.48794 -0.87236 -0.02327 0.48831 -0.85926 -0.02213 0.51106 -0.85911 -0.01718 0.5115 -0.84437 -0.01605 0.53552 -0.84412 -0.01056 0.53606 -0.82788 -0.00949 0.56082 -0.82748 -0.00326 0.56149 -0.80973 -0.00228 0.5868 -0.80928 0.00289 0.58741 -0.79993 0.00346 0.60008 -0.79956 0.00724 0.60054 -0.79048 0.00773 0.61243 -0.79002 0.01193 0.61297 -0.78125 0.01233 0.6241 -0.78066 0.01701 0.62472 -0.77194 0.01733 0.63546 -0.77327 0.00724 0.63403 -0.51123 0.02228 0.85915 -0.51026 0.02619 0.85962 -0.50553 0.02636 0.86241 -0.50486 0.02876 0.86272 -0.89816 0.02368 -0.43904 -0.90226 0.03227 -0.42999 -0.93321 0.03498 -0.35764 -0.04355 -0.02689 -0.99869 -0.052 -0.02515 -0.99833 -0.05223 -0.02295 -0.99837 -0.06715 -0.02123 -0.99752 -0.06768 -0.01944 -0.99752 -0.31827 -0.01486 -0.94788 -0.27018 -0.01443 -0.9627 -0.38212 -0.0126 -0.92403 -0.39121 -0.01211 -0.92022 -0.3919 -0.01496 -0.91989 -0.2854 -0.01604 -0.95827 -0.28582 -0.01769 -0.95812 -0.32659 -0.0186 -0.94498 -0.10984 -0.01556 -0.99383 -0.1101 -0.01635 -0.99379 -0.11553 -0.01728 -0.99315 -0.11576 -0.01804 -0.99311 -0.12292 -0.01949 -0.99223 -0.12292 -0.01949 -0.99223 -0.1314 -0.02142 -0.9911 -0.05909 -0.02659 -0.9979 -0.0586 -0.03021 -0.99782 -0.05823 -0.02892 -0.99788 -0.04895 -0.0299 -0.99835 -0.04897 -0.03032 -0.99834 -0.06996 -0.02881 -0.99713 -0.06692 -0.03402 -0.99718 -0.06543 -0.02779 -0.99747 -0.06271 -0.03264 -0.9975 -0.06232 -0.03119 -0.99757 -0.05241 -0.03178 -0.99812 -0.05249 -0.03206 -0.99811 -0.17356 -0.02196 -0.98458 -0.12884 -0.02387 -0.99138 -0.13181 -0.02309 -0.99101 -0.26535 -0.02939 -0.9637 -0.26501 -0.02697 -0.96387 -0.2357 -0.02557 -0.97149 -0.23517 -0.02275 -0.97169 -0.20731 -0.02183 -0.97803 -0.20673 -0.01943 -0.9782 -0.19428 -0.01896 -0.98076 -0.19375 -0.01701 -0.9809 -0.18323 -0.01676 -0.98293 -0.18249 -0.01425 -0.9831 -0.17444 -0.0142 -0.98457 -0.1736 -0.0116 -0.98475 -0.3828 0.00193 -0.92383 -0.25348 0.00459 -0.96733 -0.30182 0.00458 -0.95335 -0.52075 -0.03305 -0.85307 -0.4978 -0.03302 -0.86666 -0.49737 -0.02941 -0.86704 -0.47386 -0.02949 -0.88011 -0.4733 -0.02569 -0.88052 -0.4496 -0.0259 -0.89286 -0.4489 -0.02181 -0.89332 -0.42552 -0.02217 -0.90468 -0.42486 -0.01879 -0.90507 -0.38244 -0.02997 -0.92349 -0.36307 -0.02972 -0.93129 -0.36269 -0.02718 -0.93151 -0.3431 -0.02703 -0.93891 -0.34264 -0.02435 -0.93915 -0.44808 -0.0243 -0.89367 -0.30389 -0.0213 -0.95247 -0.30342 -0.01921 -0.95266 -0.41354 -0.01926 -0.91028 -0.41299 -0.01669 -0.91058 -0.45607 -0.04338 -0.88889 -0.41174 -0.04119 -0.91037 -0.39321 -0.04057 -0.91855 -0.34423 -0.03773 -0.93813 -0.34411 -0.03571 -0.93825 -0.29518 -0.03395 -0.95484 -0.2949 -0.03114 -0.95502 -0.19673 -0.02741 -0.98008 -0.19657 -0.02638 -0.98013 -0.13233 -0.02467 -0.9909 -0.13228 -0.02442 -0.99091 -0.34724 -0.03846 -0.93699 -0.2975 -0.03585 -0.95405 -0.3065 -0.03571 -0.9512 -0.26422 -0.03518 -0.96382 -0.26405 -0.03261 -0.96396 -0.21987 -0.03171 -0.97501 -0.21965 -0.02961 -0.97513 -0.14982 -0.02694 -0.98835 -0.14974 -0.02642 -0.98837 -0.09098 -0.02489 -0.99554 -0.09076 -0.02382 -0.99559 -0.08621 -0.02884 -0.99586 -0.08484 -0.02288 -0.99613 -0.08066 -0.02758 -0.99636 -0.07919 -0.02185 -0.99662 -0.07555 -0.02601 -0.9968 -0.07403 -0.02068 -0.99704 -0.07107 -0.02411 -0.99718 -0.07049 -0.02228 -0.99726 -0.05374 -0.02384 -0.99827 -0.05345 -0.02654 -0.99822 -0.04597 -0.0278 -0.99856 -0.04568 -0.02896 -0.99854 -0.12648 -0.03583 -0.99132 -0.09947 -0.03436 -0.99445 -0.09939 -0.03337 -0.99449 -0.09016 -0.03912 -0.99516 -0.08925 -0.03178 -0.9955 -0.0806 -0.03745 -0.99604 -0.07936 -0.03014 -0.99639 -0.07078 -0.03607 -0.99684 -0.07133 -0.03516 -0.99683 -0.06209 -0.03511 -0.99745 -0.06222 -0.03569 -0.99742 -0.93572 -0.05286 0.34877 -0.98641 -0.06187 0.15218 -0.90965 -0.04797 0.4126 -0.9086 -0.06066 -0.41324 -0.90873 -0.05738 -0.41343 -0.90304 -0.05747 -0.4257 -0.90318 -0.05304 -0.42597 -0.89417 -0.05318 -0.44456 -0.89427 -0.04856 -0.44489 -0.88384 -0.04873 -0.46524 -0.8839 -0.04389 -0.46562 -0.87237 -0.04408 -0.48686 -0.87236 -0.03894 -0.48731 -0.85907 -0.03917 -0.51035 -0.85898 -0.03361 -0.5109 -0.84402 -0.0339 -0.53523 -0.84382 -0.0278 -0.5359 -0.82735 -0.02817 -0.56098 -0.827 -0.02134 -0.5618 -0.80892 -0.02182 -0.58751 -0.80851 -0.01606 -0.58827 -0.79916 -0.0165 -0.60089 -0.79879 -0.01217 -0.60148 -0.78969 -0.01261 -0.61337 -0.78923 -0.00791 -0.61404 -0.78014 -0.00839 -0.62555 -0.77957 -0.00325 -0.6263 -0.77112 -0.00373 -0.63668 -0.77042 0.00194 -0.63754 -0.38317 -0.01668 -0.92353 -0.51393 -0.00632 -0.85781 -0.26963 -0.01247 -0.96288 -0.22613 -0.0145 -0.97399 -0.22657 -0.01603 -0.97386 -0.23935 -0.01607 -0.9708 -0.24004 -0.0187 -0.97058 -0.25497 -0.01893 -0.96676 -0.25573 -0.02219 -0.96649 -0.28911 -0.02288 -0.95702 -0.28963 -0.02581 -0.95679 -0.37328 -0.02913 -0.92726 -0.32462 -0.02863 -0.94541 -0.32487 -0.03046 -0.94527 -0.38275 -0.03242 -0.92328 -0.40222 -0.03276 -0.91496 -0.52109 -0.0365 -0.85272 -0.54326 -0.03661 -0.83877 -0.55951 -0.82882 1E-05 -0.55953 -0.82881 2E-05 -0.55949 -0.82884 1E-05 -0.55947 -0.82885 0 -0.55948 -0.82885 0 -0.55947 -0.82885 0 -0.55947 -0.82885 -0 -0.55948 -0.82884 -0 -0.55948 -0.82885 -0 -0.55947 -0.82885 -0 -0.55947 -0.82885 -0 -0.5595 -0.82883 1E-05 -0.55946 -0.82886 -2E-05 -0.56019 -0.82837 0.00052 -0.55928 -0.82898 -0.00014 -0.55993 -0.82854 0.00021 -0.55941 -0.82889 -2E-05 -0.55946 -0.82885 -2E-05 -0.54213 -0.84028 0.00485 -0.55926 -0.82899 6E-05 -0.55951 -0.82882 -2E-05 -0.55939 -0.82891 -4E-05 -0.56049 -0.82816 0.00167 -0.55911 -0.82909 -0.00063 -0.55903 -0.82915 -0.00065 -0.55933 -0.82894 -0.00018 -0.5597 -0.82869 0.0002 -0.55931 -0.82896 -0.00016 -0.55939 -0.8289 -0.00014 -0.55868 -0.82938 -0.00126 -0.56033 -0.82827 0.00124 -0.55956 -0.82879 8E-05 -0.55915 -0.82907 -0.00044 -0.56015 -0.82839 0.00077 -0.55957 -0.82878 0.00017 -0.5596 -0.82876 0.00022 -0.55944 -0.82887 4E-05 -0.5599 -0.82856 0.00045 -0.52031 -0.85366 -0.02329 -0.55925 -0.829 0 -0.55893 -0.82921 -0.00019 -0.56209 -0.82708 0.00105 -0.55947 0.82885 0 -0.55947 0.82885 -0 -0.55947 0.82885 0 -0.55948 0.82885 -0 -0.55947 0.82885 -0 -0.55946 0.82886 1E-05 -0.55947 0.82885 0 -0.55946 0.82886 -1E-05 -0.55948 0.82884 -1E-05 -0.5595 0.82883 -0 -0.55932 0.82895 -5E-05 -0.55958 0.82877 7E-05 -0.55947 0.82885 -0 -0.55948 0.82884 -1E-05 -0.55947 0.82885 -1E-05 -0.55948 0.82884 -1E-05 -0.55949 0.82884 -1E-05 -0.55943 0.82888 -3E-05 -0.55945 0.82886 -1E-05 -0.55946 0.82886 -1E-05 -0.55996 0.82852 -5E-05 -0.55942 0.82889 -2E-05 -0.55947 0.82885 -1E-05 -0.55944 0.82887 -3E-05 -0.55978 0.82864 -1E-05 -0.55937 0.82892 -0 -0.55889 0.82924 -9E-05 -0.55821 0.8297 -9E-05 -0.55965 0.82873 -1E-05 -0.55634 0.83095 -0.00117 -0.55973 0.82867 -1E-05 -0.55959 0.82877 -3E-05 -0.56013 0.8284 0.00012 -0.55848 0.82952 -3E-05 -0.56161 0.8274 0.00073 -1 -0 -0 0 1 0</float_array>
          <technique_common>
            <accessor source="#norm_0-array" count="3501" stride="3">
              <param name="X" type="float"/>
              <param name="Y" type="float"/>
              <param name="Z" type="float"/>
            </accessor>
          </technique_common>
        </source>
        <vertices id="vert_0">
          <input semantic="POSITION" source="#pos_0"/>
        </vertices>
        <triangles count="1290" material="mat_0">
          <input semantic="VERTEX" source="#vert_0" offset="0"/>
          <input semantic="NORMAL" source="#norm_0" offset="1"/>
          <p>0 0 1 0 2 0 3 0 4 0 5 0 4 0 6 0 5 0 5 0 6 0 7 0 8 0 9 0 10 0 9 0 11 0 10 0 10 0 11 0 12 0 11 0 13 0 12 0 12 0 13 0 14 0 15 0 16 0 8 0 16 0 17 0 8 0 8 0 17 0 9 0 7 0 6 0 18 0 6 0 19 0 18 0 18 0 19 0 20 0 21 0 22 0 23 0 22 0 24 0 23 0 25 0 26 0 27 0 26 0 28 0 27 0 27 0 28 0 24 0 28 0 29 0 24 0 24 0 29 0 23 0 20 0 19 0 30 0 19 0 31 0 30 0 30 0 31 0 32 0 31 0 33 0 32 0 32 0 33 0 25 0 33 0 34 0 25 0 25 0 34 0 26 0 35 0 36 0 15 0 36 0 37 0 15 0 15 0 37 0 16 0 38 0 39 0 40 0 39 0 41 0 40 0 40 0 41 0 35 0 41 0 42 0 35 0 35 0 42 0 36 0 13 0 43 0 14 0 43 0 44 0 14 0 14 0 44 0 45 0 44 0 46 0 45 0 45 0 46 0 47 0 46 0 48 0 47 0 47 0 48 0 49 0 48 0 50 0 49 0 49 0 50 0 51 0 50 0 52 0 51 0 51 0 52 0 53 0 52 0 54 0 53 0 53 0 54 0 21 0 54 0 55 0 21 0 21 0 55 0 22 0 2 0 56 0 0 0 56 0 57 0 0 0 0 0 57 0 58 0 57 0 59 0 58 0 58 0 59 0 60 0 59 0 61 0 60 0 60 0 61 0 62 0 61 0 63 0 62 0 62 0 63 0 64 0 63 0 65 0 64 0 64 0 65 0 38 0 65 0 66 0 38 0 38 0 66 0 39 0 67 1 68 1 69 1 70 1 71 1 72 1 71 1 73 1 72 1 72 1 73 1 74 1 73 1 75 1 74 1 74 1 75 1 76 1 75 1 77 1 76 1 76 1 77 1 3 1 77 1 4 1 3 1 72 1 78 1 70 1 78 1 79 1 70 1 70 1 79 1 80 1 79 1 81 1 80 1 80 1 81 1 68 1 81 1 82 1 68 1 68 1 82 1 69 1 67 1 69 1 83 1 69 1 84 1 83 1 83 1 84 1 85 1 84 1 86 1 85 1 85 1 86 1 87 1 87 1 88 1 85 1 88 1 89 1 85 1 85 1 89 1 90 1 89 1 91 1 90 1 90 1 91 1 92 1 92 1 91 1 93 1 91 1 94 1 93 1 93 1 94 1 95 1 96 2 97 2 98 2 99 3 100 3 101 3 102 4 103 4 104 4 105 5 106 5 107 5 108 6 109 6 110 6 111 7 112 7 113 7 114 8 115 8 112 8 116 9 117 9 115 9 118 10 119 10 120 10 119 11 121 11 120 11 120 12 121 12 122 12 121 13 123 13 122 13 124 14 125 14 118 14 125 15 126 15 118 15 118 16 126 16 119 16 127 17 128 17 129 17 128 18 124 18 129 18 129 19 124 19 130 19 124 20 118 20 130 20 110 21 109 21 129 21 109 22 131 22 129 22 129 23 131 23 127 23 132 24 133 24 134 24 134 25 135 25 132 25 135 26 136 26 132 26 132 27 136 27 137 27 138 28 139 28 132 28 139 29 140 29 132 29 132 30 140 30 133 30 137 31 141 31 132 31 141 32 142 32 132 32 132 33 142 33 143 33 142 34 144 34 143 34 143 35 144 35 110 35 144 36 145 36 110 36 110 37 145 37 108 37 146 38 147 38 148 38 148 39 149 39 146 39 149 40 150 40 146 40 146 41 150 41 151 41 152 42 153 42 154 42 153 43 155 43 154 43 154 44 155 44 156 44 155 45 157 45 156 45 155 46 158 46 157 46 158 47 159 47 157 47 157 48 159 48 160 48 161 49 162 49 163 49 162 50 164 50 163 50 163 51 164 51 165 51 166 52 8 52 167 52 8 53 10 53 167 53 167 54 10 54 161 54 10 55 12 55 161 55 161 56 12 56 162 56 12 57 14 57 162 57 162 58 14 58 164 58 15 59 168 59 35 59 168 60 169 60 35 60 35 61 169 61 40 61 169 62 170 62 40 62 40 63 170 63 38 63 170 64 171 64 38 64 38 65 171 65 64 65 171 66 172 66 64 66 64 67 172 67 62 67 173 68 1 68 174 68 1 69 0 69 174 69 174 70 0 70 175 70 0 71 58 71 175 71 175 72 58 72 176 72 58 73 60 73 176 73 102 74 104 74 177 74 178 75 179 75 180 75 179 76 181 76 180 76 180 77 181 77 182 77 181 78 183 78 182 78 184 79 185 79 186 79 187 80 188 80 189 80 188 81 190 81 189 81 189 82 190 82 191 82 192 83 193 83 101 83 193 84 194 84 101 84 195 85 196 85 197 85 196 86 198 86 197 86 195 87 197 87 199 87 197 88 198 88 199 88 199 89 198 89 200 89 191 90 185 90 189 90 185 91 184 91 189 91 189 92 184 92 187 92 184 93 186 93 187 93 187 94 186 94 201 94 186 95 202 95 201 95 196 96 203 96 198 96 203 97 202 97 198 97 198 98 202 98 200 98 202 99 186 99 200 99 200 100 186 100 199 100 204 101 205 101 206 101 205 102 207 102 206 102 206 103 207 103 208 103 206 104 209 104 204 104 209 105 210 105 204 105 204 106 210 106 211 106 210 107 209 107 211 107 211 108 209 108 212 108 209 109 213 109 212 109 212 110 213 110 2 110 59 111 57 111 214 111 57 112 56 112 214 112 59 113 215 113 61 113 215 114 216 114 61 114 61 115 216 115 63 115 216 116 217 116 63 116 63 117 217 117 65 117 218 118 39 118 217 118 39 119 66 119 217 119 217 120 66 120 65 120 36 121 219 121 37 121 219 122 220 122 37 122 37 123 220 123 16 123 220 124 221 124 16 124 16 125 221 125 17 125 222 126 223 126 11 126 223 127 13 127 11 127 13 128 223 128 43 128 223 129 224 129 43 129 43 130 224 130 44 130 163 131 105 131 161 131 105 132 107 132 161 132 161 133 107 133 167 133 107 134 225 134 167 134 167 135 225 135 166 135 225 136 226 136 166 136 227 137 228 137 229 137 230 138 231 138 232 138 233 139 234 139 235 139 234 140 236 140 235 140 235 141 236 141 237 141 238 142 160 142 239 142 160 143 159 143 239 143 239 144 159 144 230 144 159 145 158 145 230 145 230 146 158 146 231 146 158 147 155 147 231 147 231 148 155 148 240 148 155 149 153 149 240 149 240 150 153 150 146 150 153 151 152 151 146 151 146 152 152 152 147 152 227 153 229 153 241 153 229 154 242 154 241 154 241 155 242 155 243 155 242 156 244 156 243 156 243 157 244 157 245 157 244 158 246 158 245 158 245 159 246 159 247 159 246 160 248 160 247 160 247 161 248 161 249 161 250 162 249 162 251 162 249 163 248 163 251 163 251 164 248 164 252 164 252 165 248 165 253 165 248 166 246 166 253 166 253 167 246 167 254 167 246 168 244 168 254 168 254 169 244 169 255 169 244 170 242 170 255 170 255 171 242 171 256 171 242 172 229 172 256 172 256 173 229 173 257 173 229 174 228 174 257 174 257 175 228 175 258 175 259 176 260 176 261 176 260 177 262 177 261 177 261 178 262 178 263 178 258 179 264 179 257 179 264 180 265 180 257 180 257 181 265 181 256 181 265 182 266 182 256 182 256 183 266 183 255 183 266 184 267 184 255 184 255 185 267 185 254 185 267 186 268 186 254 186 254 187 268 187 253 187 268 188 269 188 253 188 253 189 269 189 252 189 269 190 262 190 252 190 252 191 262 191 251 191 262 192 260 192 251 192 251 193 260 193 250 193 264 194 132 194 265 194 132 195 143 195 265 195 265 196 143 196 266 196 143 197 110 197 266 197 266 198 110 198 267 198 110 199 129 199 267 199 267 200 129 200 268 200 129 201 130 201 268 201 268 202 130 202 269 202 130 203 118 203 269 203 269 204 118 204 262 204 118 205 120 205 262 205 262 206 120 206 263 206 120 207 122 207 263 207 263 208 122 208 270 208 122 209 123 209 270 209 270 210 123 210 117 210 271 211 272 211 273 211 271 212 274 212 275 212 274 213 276 213 275 213 276 214 222 214 275 214 275 215 222 215 9 215 222 216 11 216 9 216 271 217 273 217 274 217 273 218 111 218 274 218 274 219 111 219 276 219 111 220 113 220 276 220 276 221 113 221 222 221 113 222 277 222 222 222 222 223 277 223 223 223 277 224 278 224 223 224 223 225 278 225 224 225 99 226 279 226 280 226 99 227 280 227 100 227 280 228 281 228 100 228 100 229 281 229 101 229 281 230 282 230 101 230 101 231 282 231 192 231 283 232 284 232 279 232 284 233 285 233 279 233 279 234 285 234 280 234 286 235 287 235 288 235 289 236 290 236 291 236 290 237 292 237 291 237 117 238 116 238 270 238 116 239 293 239 270 239 270 240 293 240 263 240 293 241 294 241 263 241 263 242 294 242 261 242 294 243 295 243 261 243 261 244 295 244 259 244 115 245 114 245 116 245 114 246 296 246 116 246 116 247 296 247 293 247 296 248 297 248 293 248 293 249 297 249 294 249 297 250 298 250 294 250 294 251 298 251 295 251 299 252 300 252 301 252 300 253 214 253 301 253 301 254 214 254 302 254 214 255 56 255 302 255 302 256 56 256 2 256 215 257 292 257 216 257 292 258 290 258 216 258 216 259 290 259 217 259 290 260 289 260 217 260 217 261 289 261 218 261 303 262 304 262 305 262 304 263 306 263 305 263 305 264 306 264 307 264 306 265 308 265 307 265 307 266 308 266 309 266 308 267 310 267 309 267 304 268 311 268 306 268 311 269 312 269 306 269 306 270 312 270 308 270 312 271 313 271 308 271 308 272 313 272 310 272 9 273 17 273 275 273 17 274 221 274 275 274 275 275 221 275 271 275 221 276 220 276 271 276 271 277 220 277 314 277 220 278 219 278 314 278 272 279 271 279 311 279 271 280 314 280 311 280 311 281 314 281 312 281 314 282 219 282 312 282 312 283 219 283 313 283 219 284 36 284 313 284 313 285 36 285 310 285 36 286 42 286 310 286 310 287 42 287 41 287 315 288 316 288 317 288 60 289 317 289 176 289 317 290 316 290 176 290 176 291 316 291 175 291 316 292 318 292 175 292 175 293 318 293 174 293 318 294 104 294 174 294 174 295 104 295 173 295 104 296 103 296 173 296 97 297 319 297 320 297 319 298 179 298 320 298 320 299 179 299 321 299 179 300 178 300 321 300 321 301 178 301 322 301 319 302 323 302 179 302 323 303 324 303 179 303 179 304 324 304 181 304 324 305 186 305 181 305 181 306 186 306 183 306 186 307 185 307 183 307 325 308 326 308 327 308 326 309 328 309 327 309 327 310 328 310 329 310 328 311 330 311 329 311 329 312 330 312 331 312 330 313 332 313 331 313 331 314 332 314 333 314 332 315 334 315 333 315 333 316 334 316 335 316 194 317 199 317 101 317 199 318 186 318 101 318 101 319 186 319 99 319 186 320 324 320 99 320 99 321 324 321 279 321 324 322 323 322 279 322 279 323 323 323 283 323 323 324 336 324 283 324 97 325 96 325 319 325 96 326 337 326 319 326 319 327 337 327 323 327 337 328 338 328 323 328 323 329 338 329 336 329 339 330 340 330 341 330 287 331 335 331 288 331 335 332 334 332 288 332 288 333 334 333 342 333 334 334 332 334 342 334 342 335 332 335 343 335 332 336 330 336 343 336 343 337 330 337 344 337 330 338 328 338 344 338 344 339 328 339 345 339 328 340 326 340 345 340 345 341 326 341 346 341 326 342 325 342 346 342 346 343 325 343 341 343 325 344 347 344 341 344 341 345 347 345 339 345 347 346 348 346 339 346 339 347 348 347 349 347 348 348 350 348 349 348 349 349 350 349 237 349 350 350 351 350 237 350 237 351 351 351 235 351 352 352 353 352 354 352 353 353 355 353 354 353 354 354 355 354 356 354 355 355 357 355 356 355 356 356 357 356 358 356 357 357 359 357 358 357 358 358 359 358 360 358 359 359 361 359 360 359 360 360 361 360 362 360 363 361 340 361 364 361 340 362 339 362 364 362 364 363 339 363 232 363 339 364 349 364 232 364 232 365 349 365 230 365 349 366 237 366 230 366 230 367 237 367 239 367 237 368 236 368 239 368 239 369 236 369 238 369 236 370 234 370 238 370 365 371 366 371 367 371 366 372 368 372 367 372 367 373 368 373 369 373 368 374 370 374 369 374 369 375 370 375 371 375 370 376 372 376 371 376 371 377 372 377 373 377 372 378 374 378 373 378 373 379 374 379 375 379 374 380 376 380 375 380 375 381 376 381 377 381 376 382 303 382 377 382 377 383 303 383 378 383 303 384 305 384 378 384 378 385 305 385 291 385 305 386 307 386 291 386 291 387 307 387 289 387 307 388 309 388 289 388 289 389 309 389 218 389 309 390 310 390 218 390 218 391 310 391 39 391 310 392 41 392 39 392 207 393 282 393 208 393 282 394 281 394 208 394 208 395 281 395 286 395 281 396 280 396 286 396 286 397 280 397 287 397 280 398 285 398 287 398 287 399 285 399 335 399 285 400 284 400 335 400 335 401 284 401 333 401 284 402 283 402 333 402 333 403 283 403 331 403 283 404 336 404 331 404 331 405 336 405 329 405 336 406 338 406 329 406 329 407 338 407 327 407 338 408 337 408 327 408 327 409 337 409 325 409 337 410 96 410 325 410 325 411 96 411 347 411 96 412 98 412 347 412 347 413 98 413 348 413 98 414 379 414 348 414 348 415 379 415 350 415 379 416 380 416 350 416 350 417 380 417 351 417 106 418 233 418 107 418 233 419 235 419 107 419 107 420 235 420 225 420 235 421 351 421 225 421 225 422 351 422 226 422 351 423 380 423 226 423 226 424 380 424 381 424 380 425 379 425 381 425 381 426 379 426 382 426 379 427 98 427 382 427 382 428 98 428 383 428 98 429 97 429 383 429 383 430 97 430 384 430 97 431 320 431 384 431 384 432 320 432 385 432 320 433 321 433 385 433 385 434 321 434 386 434 321 435 322 435 386 435 386 436 322 436 177 436 59 437 214 437 215 437 214 438 300 438 215 438 215 439 300 439 292 439 300 440 299 440 292 440 292 441 299 441 291 441 299 442 387 442 291 442 291 443 387 443 378 443 387 444 388 444 378 444 378 445 388 445 377 445 388 446 352 446 377 446 377 447 352 447 375 447 352 448 354 448 375 448 375 449 354 449 373 449 354 450 356 450 373 450 373 451 356 451 371 451 356 452 358 452 371 452 371 453 358 453 369 453 358 454 360 454 369 454 369 455 360 455 367 455 360 456 362 456 367 456 367 457 362 457 365 457 15 458 389 458 168 458 389 459 390 459 168 459 168 460 390 460 169 460 390 461 391 461 169 461 169 462 391 462 170 462 391 463 392 463 170 463 170 464 392 464 171 464 392 465 315 465 171 465 171 466 315 466 172 466 315 467 317 467 172 467 172 468 317 468 62 468 317 469 60 469 62 469 177 470 104 470 386 470 104 471 318 471 386 471 386 472 318 472 385 472 318 473 316 473 385 473 385 474 316 474 384 474 316 475 315 475 384 475 384 476 315 476 383 476 315 477 392 477 383 477 383 478 392 478 382 478 392 479 391 479 382 479 382 480 391 480 381 480 391 481 390 481 381 481 381 482 390 482 226 482 390 483 389 483 226 483 226 484 389 484 166 484 389 485 15 485 166 485 166 486 15 486 8 486 2 487 213 487 302 487 213 488 209 488 302 488 302 489 209 489 301 489 209 490 206 490 301 490 301 491 206 491 299 491 206 492 208 492 299 492 299 493 208 493 387 493 208 494 286 494 387 494 387 495 286 495 388 495 286 496 288 496 388 496 388 497 288 497 352 497 288 498 342 498 352 498 352 499 342 499 353 499 342 500 343 500 353 500 353 501 343 501 355 501 343 502 344 502 355 502 355 503 344 503 357 503 344 504 345 504 357 504 357 505 345 505 359 505 345 506 346 506 359 506 359 507 346 507 361 507 346 508 341 508 361 508 361 509 341 509 362 509 341 510 340 510 362 510 362 511 340 511 365 511 340 512 363 512 365 512 365 513 363 513 366 513 112 514 111 514 114 514 111 515 273 515 114 515 114 516 273 516 296 516 273 517 272 517 296 517 296 518 272 518 297 518 272 519 311 519 297 519 297 520 311 520 298 520 311 521 304 521 298 521 298 522 304 522 295 522 304 523 303 523 295 523 295 524 303 524 259 524 303 525 376 525 259 525 259 526 376 526 260 526 376 527 374 527 260 527 260 528 374 528 250 528 374 529 372 529 250 529 250 530 372 530 249 530 372 531 370 531 249 531 249 532 370 532 247 532 370 533 368 533 247 533 247 534 368 534 245 534 368 535 366 535 245 535 245 536 366 536 243 536 366 537 363 537 243 537 243 538 363 538 241 538 363 539 364 539 241 539 241 540 364 540 227 540 364 541 232 541 227 541 227 542 232 542 228 542 232 543 231 543 228 543 228 544 231 544 258 544 231 545 240 545 258 545 258 546 240 546 264 546 240 547 146 547 264 547 264 548 146 548 132 548 146 549 151 549 132 549 132 550 151 550 138 550 393 551 394 551 395 551 396 552 397 552 398 552 398 553 397 553 399 553 400 554 401 554 402 554 403 555 404 555 405 555 406 556 407 556 408 556 409 557 410 557 411 557 84 558 69 558 412 558 164 559 413 559 165 559 413 560 414 560 165 560 414 561 413 561 415 561 413 562 416 562 415 562 415 563 416 563 417 563 418 564 419 564 420 564 421 565 422 565 423 565 422 566 424 566 423 566 423 567 424 567 425 567 426 568 427 568 406 568 428 569 429 569 430 569 431 570 432 570 433 570 432 571 434 571 433 571 435 572 436 572 437 572 436 573 438 573 437 573 438 574 439 574 437 574 437 575 439 575 440 575 441 576 442 576 443 576 442 577 444 577 443 577 443 578 444 578 445 578 446 579 441 579 447 579 448 580 449 580 450 580 449 581 451 581 450 581 450 582 451 582 452 582 451 583 453 583 452 583 453 584 454 584 452 584 452 585 454 585 455 585 224 586 278 586 456 586 44 587 457 587 46 587 457 588 458 588 46 588 46 589 458 589 48 589 48 590 459 590 50 590 459 591 460 591 50 591 50 592 460 592 52 592 460 593 461 593 52 593 52 594 461 594 54 594 18 595 20 595 462 595 20 596 30 596 462 596 462 597 30 597 463 597 30 598 32 598 463 598 463 599 32 599 464 599 32 600 25 600 464 600 464 601 25 601 465 601 25 602 27 602 465 602 465 603 27 603 466 603 27 604 24 604 466 604 466 605 24 605 467 605 24 606 22 606 467 606 468 607 72 607 469 607 72 608 74 608 469 608 469 609 74 609 468 609 74 610 76 610 468 610 468 611 76 611 470 611 76 612 3 612 470 612 470 613 3 613 5 613 78 614 471 614 79 614 471 615 472 615 79 615 79 616 472 616 81 616 89 617 88 617 473 617 88 618 87 618 473 618 473 619 87 619 86 619 474 620 475 620 90 620 475 621 85 621 90 621 95 622 94 622 473 622 94 623 91 623 473 623 473 624 91 624 89 624 83 625 85 625 409 625 85 626 475 626 409 626 409 627 475 627 93 627 475 628 474 628 93 628 93 629 474 629 92 629 474 630 90 630 92 630 476 631 80 631 68 631 477 632 70 632 80 632 4 633 77 633 478 633 77 634 75 634 478 634 478 635 75 635 479 635 75 636 73 636 479 636 479 637 73 637 477 637 73 638 71 638 477 638 477 639 71 639 70 639 480 640 31 640 481 640 31 641 19 641 481 641 482 642 34 642 33 642 483 643 29 643 484 643 29 644 28 644 484 644 484 645 28 645 482 645 28 646 26 646 482 646 482 647 26 647 34 647 485 648 21 648 486 648 21 649 23 649 486 649 49 650 51 650 485 650 51 651 53 651 485 651 485 652 53 652 21 652 485 653 487 653 49 653 487 654 416 654 49 654 49 655 416 655 47 655 416 656 413 656 47 656 47 657 413 657 45 657 413 658 164 658 45 658 45 659 164 659 14 659 488 660 489 660 490 660 491 661 425 661 492 661 425 662 424 662 492 662 492 663 424 663 493 663 424 664 422 664 493 664 493 665 422 665 494 665 488 666 495 666 489 666 495 667 496 667 489 667 489 668 496 668 497 668 496 669 430 669 497 669 440 670 431 670 437 670 431 671 433 671 437 671 437 672 433 672 498 672 433 673 499 673 498 673 498 674 499 674 500 674 499 675 501 675 500 675 500 676 501 676 502 676 501 677 503 677 502 677 434 678 428 678 433 678 428 679 430 679 433 679 433 680 430 680 499 680 430 681 496 681 499 681 499 682 496 682 501 682 496 683 495 683 501 683 501 684 495 684 503 684 495 685 488 685 503 685 494 686 418 686 493 686 418 687 420 687 493 687 493 688 420 688 492 688 420 689 504 689 492 689 492 690 504 690 491 690 504 691 505 691 491 691 491 692 505 692 506 692 507 693 508 693 509 693 508 694 510 694 509 694 509 695 510 695 511 695 510 696 512 696 511 696 511 697 512 697 513 697 514 698 515 698 516 698 517 699 507 699 518 699 507 700 509 700 518 700 518 701 509 701 519 701 509 702 511 702 519 702 519 703 511 703 520 703 511 704 513 704 520 704 520 705 513 705 443 705 521 706 455 706 522 706 455 707 454 707 522 707 522 708 454 708 514 708 454 709 453 709 514 709 514 710 453 710 515 710 453 711 451 711 515 711 515 712 451 712 523 712 451 713 449 713 523 713 523 714 449 714 447 714 449 715 448 715 447 715 447 716 448 716 446 716 524 717 525 717 526 717 525 718 527 718 526 718 526 719 527 719 528 719 48 720 458 720 459 720 458 721 405 721 459 721 459 722 405 722 460 722 405 723 404 723 460 723 460 724 404 724 461 724 529 725 530 725 412 725 530 726 473 726 412 726 412 727 473 727 84 727 473 728 86 728 84 728 531 729 532 729 533 729 532 730 534 730 533 730 533 731 534 731 535 731 536 732 537 732 538 732 537 733 539 733 538 733 401 734 400 734 540 734 400 735 541 735 540 735 541 736 542 736 540 736 540 737 542 737 543 737 542 738 544 738 543 738 543 739 544 739 529 739 544 740 545 740 529 740 529 741 545 741 530 741 546 742 536 742 547 742 536 743 538 743 547 743 547 744 538 744 548 744 546 745 549 745 536 745 549 746 550 746 536 746 536 747 550 747 537 747 550 748 551 748 537 748 537 749 551 749 539 749 551 750 552 750 539 750 553 751 524 751 554 751 524 752 526 752 554 752 554 753 526 753 555 753 526 754 528 754 555 754 555 755 528 755 556 755 528 756 557 756 556 756 556 757 557 757 558 757 557 758 548 758 558 758 558 759 548 759 559 759 548 760 538 760 559 760 559 761 538 761 531 761 538 762 539 762 531 762 531 763 539 763 532 763 539 764 552 764 532 764 532 765 552 765 534 765 441 766 443 766 447 766 443 767 513 767 447 767 447 768 513 768 523 768 513 769 512 769 523 769 523 770 512 770 515 770 512 771 510 771 515 771 515 772 510 772 516 772 510 773 508 773 516 773 516 774 508 774 560 774 508 775 507 775 560 775 560 776 507 776 561 776 507 777 517 777 561 777 561 778 517 778 562 778 525 779 521 779 527 779 521 780 522 780 527 780 527 781 522 781 528 781 522 782 514 782 528 782 528 783 514 783 557 783 514 784 516 784 557 784 557 785 516 785 548 785 516 786 560 786 548 786 548 787 560 787 547 787 560 788 561 788 547 788 547 789 561 789 546 789 561 790 562 790 546 790 546 791 562 791 549 791 44 792 224 792 457 792 224 793 456 793 457 793 457 794 456 794 458 794 456 795 563 795 458 795 458 796 563 796 405 796 563 797 564 797 405 797 405 798 564 798 403 798 564 799 565 799 403 799 403 800 565 800 566 800 565 801 567 801 566 801 566 802 567 802 568 802 567 803 569 803 568 803 568 804 569 804 570 804 535 805 571 805 533 805 571 806 572 806 533 806 533 807 572 807 531 807 572 808 573 808 531 808 531 809 573 809 559 809 573 810 569 810 559 810 559 811 569 811 558 811 569 812 567 812 558 812 558 813 567 813 556 813 567 814 565 814 556 814 556 815 565 815 555 815 565 816 564 816 555 816 555 817 564 817 554 817 564 818 563 818 554 818 554 819 563 819 553 819 563 820 456 820 553 820 78 821 72 821 471 821 72 822 468 822 471 822 471 823 468 823 574 823 468 824 470 824 574 824 574 825 470 825 575 825 470 826 5 826 575 826 575 827 5 827 7 827 69 828 82 828 412 828 82 829 81 829 412 829 412 830 81 830 529 830 81 831 472 831 529 831 529 832 472 832 543 832 472 833 471 833 543 833 543 834 471 834 540 834 471 835 574 835 540 835 540 836 574 836 401 836 574 837 575 837 401 837 401 838 575 838 402 838 575 839 7 839 402 839 467 840 576 840 466 840 576 841 577 841 466 841 466 842 577 842 465 842 577 843 578 843 465 843 465 844 578 844 464 844 578 845 579 845 464 845 464 846 579 846 463 846 579 847 580 847 463 847 463 848 580 848 462 848 7 849 18 849 402 849 18 850 462 850 402 850 402 851 462 851 400 851 462 852 580 852 400 852 400 853 580 853 541 853 580 854 579 854 541 854 541 855 579 855 581 855 579 856 578 856 581 856 581 857 578 857 582 857 578 858 577 858 582 858 582 859 577 859 583 859 577 860 576 860 583 860 583 861 576 861 584 861 576 862 467 862 584 862 584 863 467 863 585 863 467 864 22 864 585 864 585 865 22 865 55 865 535 866 586 866 571 866 586 867 545 867 571 867 571 868 545 868 572 868 545 869 544 869 572 869 572 870 544 870 573 870 544 871 542 871 573 871 573 872 542 872 569 872 542 873 541 873 569 873 569 874 541 874 570 874 541 875 581 875 570 875 570 876 581 876 568 876 581 877 582 877 568 877 568 878 582 878 566 878 582 879 583 879 566 879 566 880 583 880 403 880 583 881 584 881 403 881 403 882 584 882 404 882 584 883 585 883 404 883 404 884 585 884 461 884 585 885 55 885 461 885 461 886 55 886 54 886 6 887 587 887 588 887 587 888 589 888 588 888 588 889 589 889 590 889 591 890 592 890 593 890 594 891 411 891 593 891 411 892 410 892 593 892 593 893 410 893 591 893 410 894 409 894 591 894 443 895 595 895 520 895 595 896 596 896 520 896 520 897 596 897 519 897 596 898 597 898 519 898 519 899 597 899 518 899 597 900 598 900 518 900 518 901 598 901 517 901 598 902 599 902 517 902 517 903 599 903 562 903 599 904 600 904 562 904 562 905 600 905 549 905 600 906 601 906 549 906 549 907 601 907 550 907 601 908 602 908 550 908 550 909 602 909 551 909 602 910 603 910 551 910 551 911 603 911 552 911 603 912 604 912 552 912 552 913 604 913 534 913 604 914 605 914 534 914 534 915 605 915 535 915 605 916 606 916 535 916 535 917 606 917 586 917 606 918 607 918 586 918 586 919 607 919 545 919 607 920 592 920 545 920 545 921 592 921 530 921 592 922 591 922 530 922 530 923 591 923 473 923 591 924 409 924 473 924 473 925 409 925 95 925 409 926 93 926 95 926 4 927 478 927 608 927 478 928 479 928 608 928 608 929 479 929 609 929 479 930 477 930 609 930 609 931 477 931 610 931 611 932 612 932 613 932 612 933 614 933 613 933 613 934 614 934 615 934 615 935 399 935 613 935 399 936 397 936 613 936 613 937 397 937 611 937 397 938 396 938 611 938 611 939 396 939 616 939 80 940 476 940 477 940 476 941 617 941 477 941 477 942 617 942 610 942 617 943 618 943 610 943 610 944 618 944 619 944 618 945 620 945 619 945 619 946 620 946 621 946 622 947 480 947 590 947 480 948 481 948 590 948 590 949 481 949 588 949 481 950 19 950 588 950 588 951 19 951 6 951 506 952 483 952 623 952 483 953 484 953 623 953 623 954 484 954 622 954 484 955 482 955 622 955 622 956 482 956 480 956 482 957 33 957 480 957 480 958 33 958 31 958 394 959 393 959 620 959 393 960 624 960 620 960 620 961 624 961 621 961 489 962 395 962 490 962 395 963 394 963 490 963 490 964 394 964 625 964 394 965 620 965 625 965 625 966 620 966 626 966 620 967 618 967 626 967 626 968 618 968 627 968 618 969 617 969 627 969 627 970 617 970 594 970 617 971 476 971 594 971 594 972 476 972 411 972 476 973 68 973 411 973 411 974 68 974 409 974 68 975 67 975 409 975 409 976 67 976 83 976 628 977 629 977 630 977 629 978 631 978 630 978 630 979 631 979 632 979 631 980 633 980 632 980 632 981 633 981 634 981 633 982 635 982 634 982 634 983 635 983 636 983 635 984 637 984 636 984 636 985 637 985 638 985 629 986 639 986 631 986 639 987 640 987 631 987 631 988 640 988 633 988 640 989 641 989 633 989 633 990 641 990 635 990 641 991 616 991 635 991 635 992 616 992 637 992 616 993 396 993 637 993 637 994 396 994 638 994 396 995 398 995 638 995 429 996 642 996 430 996 642 997 426 997 430 997 430 998 426 998 497 998 426 999 406 999 497 999 497 1000 406 1000 489 1000 406 1001 408 1001 489 1001 489 1002 408 1002 395 1002 408 1003 643 1003 395 1003 395 1004 643 1004 393 1004 643 1005 644 1005 393 1005 393 1006 644 1006 624 1006 427 1007 645 1007 406 1007 645 1008 421 1008 406 1008 406 1009 421 1009 407 1009 421 1010 423 1010 407 1010 407 1011 423 1011 408 1011 423 1012 425 1012 408 1012 408 1013 425 1013 643 1013 425 1014 491 1014 643 1014 643 1015 491 1015 644 1015 491 1016 506 1016 644 1016 644 1017 506 1017 624 1017 506 1018 623 1018 624 1018 624 1019 623 1019 621 1019 623 1020 622 1020 621 1020 621 1021 622 1021 619 1021 622 1022 590 1022 619 1022 619 1023 590 1023 610 1023 590 1024 589 1024 610 1024 610 1025 589 1025 609 1025 589 1026 587 1026 609 1026 609 1027 587 1027 608 1027 587 1028 6 1028 608 1028 608 1029 6 1029 4 1029 419 1030 417 1030 420 1030 417 1031 416 1031 420 1031 420 1032 416 1032 504 1032 416 1033 487 1033 504 1033 504 1034 487 1034 505 1034 487 1035 485 1035 505 1035 505 1036 485 1036 506 1036 485 1037 486 1037 506 1037 506 1038 486 1038 483 1038 486 1039 23 1039 483 1039 483 1040 23 1040 29 1040 445 1041 646 1041 443 1041 646 1042 435 1042 443 1042 443 1043 435 1043 595 1043 435 1044 437 1044 595 1044 595 1045 437 1045 596 1045 437 1046 498 1046 596 1046 596 1047 498 1047 597 1047 498 1048 500 1048 597 1048 597 1049 500 1049 598 1049 500 1050 502 1050 598 1050 598 1051 502 1051 599 1051 502 1052 628 1052 599 1052 599 1053 628 1053 600 1053 628 1054 630 1054 600 1054 600 1055 630 1055 601 1055 630 1056 632 1056 601 1056 601 1057 632 1057 602 1057 632 1058 634 1058 602 1058 602 1059 634 1059 603 1059 634 1060 636 1060 603 1060 603 1061 636 1061 604 1061 636 1062 638 1062 604 1062 604 1063 638 1063 605 1063 638 1064 398 1064 605 1064 605 1065 398 1065 606 1065 398 1066 399 1066 606 1066 606 1067 399 1067 607 1067 399 1068 615 1068 607 1068 607 1069 615 1069 592 1069 615 1070 614 1070 592 1070 592 1071 614 1071 593 1071 614 1072 612 1072 593 1072 593 1073 612 1073 594 1073 612 1074 611 1074 594 1074 594 1075 611 1075 627 1075 611 1076 616 1076 627 1076 627 1077 616 1077 626 1077 616 1078 641 1078 626 1078 626 1079 641 1079 625 1079 641 1080 640 1080 625 1080 625 1081 640 1081 490 1081 640 1082 639 1082 490 1082 490 1083 639 1083 488 1083 639 1084 629 1084 488 1084 488 1085 629 1085 503 1085 629 1086 628 1086 503 1086 503 1087 628 1087 502 1087 121 1088 157 1088 123 1088 157 1089 160 1089 123 1089 123 1090 160 1090 117 1090 163 1091 277 1091 105 1091 277 1092 113 1092 105 1092 105 1093 113 1093 106 1093 113 1094 112 1094 106 1094 106 1095 112 1095 233 1095 112 1096 115 1096 233 1096 233 1097 115 1097 234 1097 115 1098 117 1098 234 1098 234 1099 117 1099 238 1099 117 1100 160 1100 238 1100 149 1101 148 1101 125 1101 148 1102 147 1102 125 1102 125 1103 147 1103 152 1103 121 1104 119 1104 157 1104 119 1105 126 1105 157 1105 157 1106 126 1106 156 1106 126 1107 125 1107 156 1107 156 1108 125 1108 154 1108 125 1109 152 1109 154 1109 137 1110 125 1110 141 1110 125 1111 142 1111 141 1111 125 1112 134 1112 133 1112 138 1113 151 1113 125 1113 151 1114 150 1114 125 1114 125 1115 150 1115 149 1115 137 1116 136 1116 125 1116 136 1117 135 1117 125 1117 125 1118 135 1118 134 1118 133 1119 140 1119 125 1119 140 1120 139 1120 125 1120 125 1121 139 1121 138 1121 125 1122 124 1122 142 1122 124 1123 128 1123 142 1123 142 1124 128 1124 127 1124 127 1125 131 1125 142 1125 131 1126 109 1126 142 1126 142 1127 109 1127 144 1127 109 1128 108 1128 144 1128 144 1129 108 1129 145 1129 414 1130 415 1130 456 1130 415 1131 417 1131 456 1131 456 1132 417 1132 553 1132 417 1133 419 1133 553 1133 553 1134 419 1134 524 1134 419 1135 418 1135 524 1135 524 1136 418 1136 525 1136 455 1137 426 1137 452 1137 426 1138 642 1138 452 1138 521 1139 645 1139 455 1139 645 1140 427 1140 455 1140 455 1141 427 1141 426 1141 418 1142 494 1142 525 1142 494 1143 422 1143 525 1143 525 1144 422 1144 521 1144 422 1145 421 1145 521 1145 521 1146 421 1146 645 1146 642 1147 429 1147 452 1147 429 1148 428 1148 452 1148 452 1149 428 1149 434 1149 441 1150 446 1150 434 1150 446 1151 448 1151 434 1151 448 1152 450 1152 434 1152 434 1153 450 1153 452 1153 434 1154 432 1154 441 1154 432 1155 431 1155 441 1155 441 1156 431 1156 442 1156 431 1157 440 1157 442 1157 442 1158 440 1158 444 1158 435 1159 646 1159 445 1159 440 1160 439 1160 444 1160 439 1161 438 1161 444 1161 444 1162 438 1162 445 1162 438 1163 436 1163 445 1163 445 1164 436 1164 435 1164 277 1165 163 1165 278 1165 163 1165 165 1165 278 1165 278 1165 165 1165 456 1165 165 1165 414 1165 456 1165 2 1166 1 1166 212 1166 1 1166 173 1166 212 1166 212 1166 173 1166 211 1166 173 1166 103 1166 211 1166 211 1166 103 1166 204 1166 103 1166 102 1166 204 1166 102 1166 177 1166 204 1166 204 1166 177 1166 205 1166 177 1166 322 1166 205 1166 205 1166 322 1166 207 1166 207 1166 322 1166 282 1166 322 1166 178 1166 282 1166 282 1166 178 1166 192 1166 178 1166 180 1166 192 1166 192 1166 180 1166 193 1166 185 1166 196 1166 195 1166 196 1166 185 1166 203 1166 185 1166 191 1166 203 1166 203 1166 191 1166 202 1166 180 1166 182 1166 193 1166 182 1166 183 1166 193 1166 193 1166 183 1166 194 1166 183 1166 185 1166 194 1166 194 1166 185 1166 199 1166 185 1166 195 1166 199 1166 191 1166 190 1166 202 1166 190 1166 188 1166 202 1166 202 1166 188 1166 201 1166 188 1166 187 1166 201 1166</p>
        </triangles>
      </mesh>
    </geometry>
  </library_geometries>
  <library_visual_scenes>
    <visual_scene id="DefaultScene">
      <node id="node_9d5b68b6_4586_45f2_86c2_66e57505a93d" type="NODE">
        <matrix>1 0 0 0 0 1 0 0 0 0 1 0 0 0 0 1</matrix>
        <node id="node_27c215b8_5773_44c9_9d13_b42ae1ad6d5d" type="NODE">
          <matrix>1 0 0 0 0 1 0 0 0 0 1 0 0 0 0 1</matrix>
          <node id="node_27c215b8_5773_44c9_9d13_b42ae1ad6d5d_mesh0" type="NODE">
            <matrix>1 0 0 0 0 1 0 0 0 0 1 0 0 0 0 1</matrix>
            <instance_geometry url="#geometry_0a0ef230_42ab_45f6_8fee_a2114fe12df6">
              <bind_material>
                <technique_common>
                  <instance_material symbol="mat_0" target="#mat_0"/>
                </technique_common>
              </bind_material>
            </instance_geometry>
          </node>
        </node>
      </node>
    </visual_scene>
  </library_visual_scenes>
  <scene>
    <instance_visual_scene url="#DefaultScene"/>
  </scene>
</COLLADA>
