<?xml version="1.0" encoding="UTF-8"?>
<COLLADA xmlns="http://www.collada.org/2005/11/COLLADASchema" version="1.4.1">
<!--
# File generated by ImageToStl.com - Free Image and 3D model conversion tools
-->
  <asset>
    <contributor>
      <author>ImageToStl.com</author>
      <authoring_tool>ImageToStl.com</authoring_tool>
    </contributor>
    <created>2026-03-22T02:15:50</created>
    <modified>2026-03-22T02:15:50</modified>
    <up_axis>Z_UP</up_axis>
  </asset>
  <library_effects>
    <effect id="effect_0">
        <profile_COMMON>
          <technique sid="common">
            <phong>
              <diffuse>
                <color>0.85 0.85 0.85 1</color>
              </diffuse>
              <specular>
                <color>0.05 0.05 0.05 1</color>
              </specular>
              <shininess>
                <float>64</float>
              </shininess>
            </phong>
          </technique>
        </profile_COMMON>
    </effect>
  </library_effects>
  <library_materials>
    <material id="mat_0">
      <instance_effect url="#effect_0"/>
    </material>
  </library_materials>
  <library_geometries>
    <geometry id="geometry_2223f83c_79f7_4d65_898e_acccd6ab9024">
      <mesh>
        <source id="pos_0">
          <float_array id="pos_0-array" count="315">-393.00598145 -689.76293945 44.07689667 -393.48126221 -709.88568115 44.87763977 -393.48126221 -709.88568115 41.09681702 -383.79998779 -300 25.69083595 -383.79998779 -300 35.54902267 -384.20932007 -317.32867432 26.2062149 -385.08996582 -354.61407471 36.38981628 -385.84640503 -386.64102173 28.34604645 -386.37988281 -409.22647095 37.32526398 -387.48339844 -455.94772339 30.6635704 -387.36291504 -450.84823608 38.1192131 -389.12017822 -525.24713135 33.18927002 -393.20599365 -698.23260498 40.45103455 -393.05566406 -691.86755371 40.12207794 -392.83551025 -682.54571533 43.82939911 -392.68731689 -676.27258301 39.36884308 -392.41143799 -664.5925293 43.27130508 -392.41000366 -664.53161621 38.83739471 -392.0663147 -649.98010254 42.85564423 -392.11923218 -652.22058105 38.30084991 -391.13632202 -610.60644531 41.80273819 -391.13504028 -610.5513916 36.55300522 -390.51904297 -584.47180176 41.13855362 -390.75683594 -594.53955078 35.90069962 -390.2515564 -573.14611816 40.8582077 -388.95947266 -518.44238281 39.56511688 -402.38366699 -709.88568115 43.82229614 -404.77124023 -709.88568115 40.90645599 -398.10183716 -709.88568115 44.33777618 -406.31829834 -709.88568115 43.33223343 -409.89559937 -709.88568115 42.86880493 -414.19442749 -709.88568115 40.86275864 -413.1026001 -709.88568115 42.43320465 -415.27944946 -709.88568115 40.87161255 -415.92196655 -709.88568115 42.02671432 -418.32858276 -709.88568115 41.65024185 -419.61709595 -709.88568115 40.97983932 -420.28042603 -709.88568115 41.30229568 -421.18200684 -709.88568115 41.10276794 -394.29742432 -300 33.70902634 -390.93899536 -300 26.21008682 -403.37976074 -300 31.97465134 -402.57141113 -300 27.19487572 -409.09344482 -300 30.78774834 -411.38327026 -300 28.10268974 -414.20986938 -300 29.62812233 -414.37594604 -300 28.46115303 -417.29666138 -300 28.85303688 -419.79544067 -586.19226074 36.36859894 -420.00479126 -605.35681152 36.98892593 -418.38381958 -605.46368408 37.36785126 -403.29205322 -702.97735596 43.38479996 -411.71054077 -700.80059814 42.1896286 -417.50921631 -685.90075684 40.65488434 -419.61526489 -685.5413208 40.26507568 -417.84899902 -379.74902344 30.74753189 -415.52011108 -397.64358521 31.79521179 -412.17370605 -397.8458252 32.53749466 -403.52999878 -398.61608887 34.23639679 -392.71188354 -399.81863403 36.11859512 -395.9744873 -503.47567749 38.12533188 -399.52487183 -608.8213501 40.57374191 -401.49502563 -662.37524414 42.02468491 -406.1038208 -501.9624939 36.44213104 -408.90274048 -606.96490479 39.09867477 -420.90542603 -685.41827393 39.97838211 -420.61978149 -660.26055908 38.94966888 -419.19711304 -658.67932129 39.20149994 -411.2512207 -687.26971436 41.65455627 -416.96081543 -659.02294922 39.62791061 -415.91287231 -605.77587891 37.86511993 -413.95080566 -500.99331665 34.97297287 -416.86474609 -500.73886108 34.35242462 -419.01821899 -511.45999146 34.15630341 -402.63131714 -689.40692139 42.88425446 -410.4190979 -660.33178711 40.70853043 -403.2651062 -702.9418335 40.54694748 -411.67694092 -700.78436279 40.38890076 -417.48239136 -685.89923096 39.78156662 -402.59698486 -689.3737793 39.86510086 -401.44415283 -662.34716797 38.6426239 -389.99725342 -504.40264893 32.44103241 -386.33850098 -400.57351685 28.80394745 -392.47610474 -399.8371582 29.11216927 -415.48065186 -397.68167114 30.86517334 -394.11178589 -451.49633789 30.7873497 -395.81387329 -503.47613525 32.56825638 -397.58547974 -555.87792969 34.45683289 -399.43832397 -608.80303955 36.46607971 -419.6003418 -685.54321289 39.86478806 -416.92919922 -659.02502441 38.64952087 -419.18005371 -658.68463135 38.75307846 -415.87139893 -605.78503418 36.67657471 -418.36233521 -605.47576904 36.82312393 -414.8586731 -553.1473999 34.94294357 -416.83432007 -500.7640686 33.61506271 -413.88922119 -501.0161438 33.36425018 -412.09185791 -397.88201904 30.50857544 -403.36672974 -398.64520264 29.78794098 -404.64883423 -450.15350342 31.30553246 -405.98684692 -501.97637939 32.91437912 -407.38015747 -554.2131958 34.63222885 -408.83157349 -606.9630127 36.49163818 -410.37017822 -660.32177734 38.56225967 -411.21279907 -687.25549316 39.73870468</float_array>
          <technique_common>
            <accessor source="#pos_0-array" count="315" stride="3">
              <param name="X" type="float"/>
              <param name="Y" type="float"/>
              <param name="Z" type="float"/>
            </accessor>
          </technique_common>
        </source>
        <source id="norm_0">
          <float_array id="norm_0-array" count="558">0.99972 -0.02361 0 0.99972 -0.02361 0 0.99972 -0.02361 -0 0.99972 -0.02361 0 0.99972 -0.02361 0 0.99972 -0.02361 0 0.99972 -0.02361 -0 0.99972 -0.02361 -0 0.99972 -0.02361 1E-05 0.99972 -0.02361 -0 0.99972 -0.02361 -0 0.99972 -0.02361 0 0.99972 -0.02361 0 0.99972 -0.02361 -0 0.99972 -0.02361 -0 0.99972 -0.02361 -0 0.99972 -0.02361 -0 0.99972 -0.02361 -0 0.99972 -0.02361 -0 0.99972 -0.02361 0 0.99972 -0.02361 -0 0.99972 -0.02361 0 0.99972 -0.02361 0 0.99972 -0.02361 0 0 -1 -0 0 1 0 -0.22537 0.03398 0.97368 -0.11591 0.04976 0.99201 -0.12832 0.04868 0.99054 -0.12346 0.04654 0.99126 -0.11939 0.04711 0.99173 -0.13444 0.04714 0.9898 -0.13895 0.04781 0.98914 -0.14254 0.04711 0.98867 -0.15439 0.04623 0.98693 -0.17531 0.04669 0.98341 -0.24346 0.02472 0.96959 -0.2454 0.0248 0.96911 -0.21507 0.02455 0.97629 -0.22098 0.02439 0.97497 -0.19078 0.02356 0.98135 -0.20334 0.02276 0.97884 -0.1548 0.0225 0.98769 -0.15749 0.02063 0.9873 -0.16119 0.02126 0.98669 -0.17262 0.01924 0.9848 -0.15018 0.02469 0.98835 -0.14576 0.02682 0.98896 -0.13663 0.02762 0.99024 -0.13712 0.02775 0.99017 -0.12778 0.03383 0.99123 -0.12841 0.03123 0.99123 -0.12889 0.0316 0.99116 -0.1387 0.02975 0.98989 -0.13898 0.02844 0.98989 -0.18753 0.02073 0.98204 -0.1689 0.02286 0.98537 -0.16863 0.02523 0.98536 -0.19059 0.02569 0.98133 -0.14405 0.02369 0.98929 -0.16036 0.02415 0.98676 -0.15974 0.02832 0.98675 -0.14971 0.02899 0.9883 -0.14907 0.03226 0.9883 -0.21584 0.04726 0.97528 -0.21237 0.04739 0.97604 -0.21288 0.04233 0.97616 -0.17408 0.04677 0.98362 -0.17496 0.04167 0.98369 -0.21924 0.04201 0.97477 -0.1281 0.04846 0.99058 -0.12938 0.04357 0.99064 -0.14818 0.0441 0.98798 -0.14891 0.04079 0.98801 -0.18103 0.04124 0.98261 -0.19347 0.03069 0.98063 -0.20558 0.03115 0.97814 -0.254 0.03152 0.96669 -0.24376 0.03123 0.96933 -0.1211 0.04232 0.99174 -0.12131 0.04249 0.99171 -0.13067 0.0429 0.9905 -0.13167 0.03885 0.99053 -0.15516 0.03946 0.9871 -0.15591 0.03575 0.98712 -0.18182 0.03611 0.98267 -0.1927 0.03673 0.98057 -0.21381 0.0369 0.97618 -0.22514 0.03729 0.97361 -0.22866 0.02721 0.97313 -0.22357 0.02708 0.97431 -0.21492 0.02702 0.97626 -0.20599 0.02665 0.97819 -0.18082 0.02633 0.98316 -0.1803 0.03051 0.98314 -0.16839 0.02942 0.98528 -0.16753 0.03448 0.98526 -0.13825 0.03379 0.98982 -0.13745 0.03725 0.98981 -0.12137 0.03664 0.99193 -0.12154 0.03689 0.9919 0.01683 -0.05534 -0.99833 -0.00815 -0.04974 -0.99873 -0.01555 -0.04682 -0.99878 0.0105 -0.04563 -0.9989 0.01007 -0.04545 -0.99892 0.0142 -0.04857 -0.99872 0.0136 -0.05085 -0.99861 0.0148 -0.05196 -0.99854 0.01656 -0.05571 -0.99831 -0.00837 -0.03622 -0.99931 -0.09881 -0.03136 -0.99461 0.04888 -0.03453 -0.99821 -0.07251 -0.02794 -0.99698 -0.07233 -0.02787 -0.99699 -0.1189 -0.02308 -0.99264 -0.05666 -0.02947 -0.99796 -0.05383 -0.0309 -0.99807 -0.0538 -0.03066 -0.99808 -0.03335 -0.03381 -0.99887 -0.02716 -0.03334 -0.99907 -0.02775 -0.03703 -0.99893 -0.022 -0.03527 -0.99914 -0.0089 -0.03889 -0.9992 -0.00292 -0.03783 -0.99928 0.00188 -0.04075 -0.99917 0.00189 -0.04069 -0.99917 0.00913 -0.04212 -0.99907 0.01095 -0.0438 -0.99898 -0.02491 -0.04767 -0.99855 -0.04689 -0.04568 -0.99786 -0.04613 -0.04109 -0.99809 -0.05203 -0.04049 -0.99782 -0.05136 -0.03596 -0.99803 -0.06305 -0.03521 -0.99739 -0.06262 -0.03165 -0.99754 -0.10053 -0.029 -0.99451 -0.08725 -0.02853 -0.99578 -0.08699 -0.02542 -0.99588 -0.10612 -0.02567 -0.99402 -0.10601 -0.02367 -0.99408 -0.10245 -0.0237 -0.99446 -0.07823 -0.04556 -0.99589 -0.09087 -0.04469 -0.99486 -0.09042 -0.03977 -0.99511 -0.09247 -0.03963 -0.99493 -0.09797 -0.03457 -0.99459 -0.0845 -0.0255 -0.9961 -0.08465 -0.02724 -0.99604 -0.07759 -0.02624 -0.99664 -0.06037 -0.02942 -0.99774 -0.06034 -0.02909 -0.99775 -0.04599 -0.03161 -0.99844 -0.04604 -0.032 -0.99843 -0.03199 -0.03433 -0.9989 -0.03232 -0.03637 -0.99882 -0.02084 -0.03817 -0.99905 -0.02152 -0.04163 -0.9989 -0.01616 -0.04313 -0.99894 -0.01708 -0.04741 -0.99873 -0.13295 -0.02262 -0.99086 -0.12488 -0.023 -0.99191 -0.13577 -0.02443 -0.99044 -0.12423 -0.02483 -0.99194 -0.10769 -0.0283 -0.99378 -0.07919 -0.02937 -0.99643 -0.10262 -0.03106 -0.99424 -0.10284 -0.03435 -0.9941 -0.08433 -0.0255 -0.99611 -0.06496 -0.028 -0.9975 -0.06494 -0.02777 -0.9975 -0.053 -0.03069 -0.99812 -0.05286 -0.02962 -0.99816 -0.03884 -0.03295 -0.9987 -0.03867 -0.03181 -0.99875 -0.02387 -0.0352 -0.9991 -0.02377 -0.03456 -0.99912 -0.01008 -0.03758 -0.99924 -0.01026 -0.03848 -0.99921 -0.00022 -0.04061 -0.99918 -0.0009 -0.04361 -0.99905 0.00351 -0.04534 -0.99897 0.00283 -0.0481 -0.99884 0.00582 -0.05048 -0.99871 0.00507 -0.05339 -0.99856 0.00463 -0.05271 -0.9986</float_array>
          <technique_common>
            <accessor source="#norm_0-array" count="558" stride="3">
              <param name="X" type="float"/>
              <param name="Y" type="float"/>
              <param name="Z" type="float"/>
            </accessor>
          </technique_common>
        </source>
        <vertices id="vert_0">
          <input semantic="POSITION" source="#pos_0"/>
        </vertices>
        <triangles count="206" material="mat_0">
          <input semantic="VERTEX" source="#vert_0" offset="0"/>
          <input semantic="NORMAL" source="#norm_0" offset="1"/>
          <p>0 0 1 0 2 0 3 1 4 1 5 1 4 2 6 2 5 2 5 3 6 3 7 3 6 4 8 4 7 4 7 5 8 5 9 5 8 6 10 6 9 6 9 7 10 7 11 7 2 8 12 8 0 8 12 9 13 9 0 9 0 10 13 10 14 10 13 11 15 11 14 11 14 12 15 12 16 12 15 13 17 13 16 13 16 14 17 14 18 14 17 15 19 15 18 15 18 16 19 16 20 16 19 17 21 17 20 17 20 18 21 18 22 18 21 19 23 19 22 19 22 20 23 20 24 20 23 21 11 21 24 21 24 22 11 22 25 22 11 23 10 23 25 23 26 24 27 24 28 24 27 24 2 24 28 24 28 24 2 24 1 24 26 24 29 24 27 24 29 24 30 24 27 24 27 24 30 24 31 24 30 24 32 24 31 24 31 24 32 24 33 24 32 24 34 24 33 24 34 24 35 24 33 24 33 24 35 24 36 24 35 24 37 24 36 24 36 24 37 24 38 24 4 25 3 25 39 25 3 25 40 25 39 25 39 25 40 25 41 25 40 25 42 25 41 25 41 25 42 25 43 25 42 25 44 25 43 25 43 25 44 25 45 25 44 25 46 25 45 25 45 25 46 25 47 25 48 26 49 26 50 26 28 27 1 27 51 27 30 28 29 28 51 28 29 29 26 29 51 29 51 30 26 30 28 30 30 31 52 31 32 31 52 32 53 32 32 32 32 33 53 33 34 33 53 34 35 34 34 34 54 35 37 35 35 35 45 36 47 36 55 36 55 37 56 37 45 37 56 38 57 38 45 38 45 39 57 39 43 39 57 40 58 40 43 40 43 41 58 41 41 41 10 42 8 42 59 42 8 43 6 43 59 43 59 44 6 44 39 44 6 45 4 45 39 45 60 46 25 46 10 46 25 47 60 47 24 47 60 48 61 48 24 48 24 49 61 49 22 49 14 50 16 50 62 50 16 51 18 51 62 51 62 52 18 52 61 52 18 53 20 53 61 53 61 54 20 54 22 54 39 55 41 55 59 55 41 56 58 56 59 56 59 57 58 57 63 57 58 58 57 58 63 58 10 59 59 59 60 59 59 60 63 60 60 60 60 61 63 61 61 61 63 62 64 62 61 62 61 63 64 63 62 63 38 64 37 64 65 64 37 65 54 65 65 65 65 66 54 66 66 66 35 67 53 67 54 67 53 68 67 68 54 68 54 69 67 69 66 69 30 70 51 70 52 70 51 71 68 71 52 71 52 72 68 72 53 72 68 73 69 73 53 73 53 74 69 74 67 74 70 75 71 75 50 75 71 76 72 76 50 76 50 77 72 77 48 77 72 78 73 78 48 78 1 79 0 79 51 79 0 80 74 80 51 80 51 81 74 81 68 81 74 82 75 82 68 82 68 83 75 83 69 83 75 84 70 84 69 84 69 85 70 85 67 85 70 86 50 86 67 86 67 87 50 87 66 87 50 88 49 88 66 88 55 89 73 89 56 89 73 90 72 90 56 90 56 91 72 91 57 91 72 92 71 92 57 92 57 93 71 93 63 93 71 94 70 94 63 94 63 95 70 95 64 95 70 96 75 96 64 96 64 97 75 97 62 97 75 98 74 98 62 98 62 99 74 99 14 99 74 100 0 100 14 100 27 101 76 101 2 101 31 102 33 102 77 102 33 103 78 103 77 103 79 104 80 104 17 104 17 105 15 105 79 105 15 106 13 106 79 106 79 107 13 107 76 107 13 108 12 108 76 108 76 109 12 109 2 109 11 110 81 110 9 110 81 111 82 111 9 111 9 112 82 112 7 112 40 113 3 113 5 113 40 114 5 114 83 114 84 115 46 115 44 115 5 116 7 116 83 116 7 117 82 117 83 117 83 118 82 118 85 118 82 119 81 119 85 119 85 120 81 120 86 120 81 121 11 121 86 121 86 122 11 122 87 122 11 123 23 123 87 123 87 124 23 124 88 124 23 125 21 125 88 125 88 126 21 126 80 126 21 127 19 127 80 127 80 128 19 128 17 128 33 129 36 129 78 129 36 130 89 130 78 130 78 131 89 131 90 131 89 132 91 132 90 132 90 133 91 133 92 133 91 134 93 134 92 134 92 135 93 135 94 135 93 136 95 136 94 136 94 137 95 137 96 137 95 138 84 138 96 138 96 139 84 139 97 139 84 140 44 140 97 140 97 141 44 141 42 141 36 142 38 142 89 142 38 143 65 143 89 143 89 144 65 144 91 144 65 145 66 145 91 145 91 146 66 146 93 146 42 147 98 147 97 147 98 148 99 148 97 148 97 149 99 149 96 149 99 150 100 150 96 150 96 151 100 151 94 151 100 152 101 152 94 152 94 153 101 153 92 153 101 154 102 154 92 154 92 155 102 155 90 155 102 156 103 156 90 156 90 157 103 157 78 157 103 158 104 158 78 158 78 159 104 159 77 159 47 160 46 160 55 160 46 161 84 161 55 161 55 162 84 162 73 162 84 163 95 163 73 163 73 164 95 164 48 164 95 165 93 165 48 165 48 166 93 166 49 166 93 167 66 167 49 167 42 168 40 168 98 168 40 169 83 169 98 169 98 170 83 170 99 170 83 171 85 171 99 171 99 172 85 172 100 172 85 173 86 173 100 173 100 174 86 174 101 174 86 175 87 175 101 175 101 176 87 176 102 176 87 177 88 177 102 177 102 178 88 178 103 178 88 179 80 179 103 179 103 180 80 180 104 180 80 181 79 181 104 181 104 182 79 182 77 182 79 183 76 183 77 183 77 184 76 184 31 184 76 185 27 185 31 185</p>
        </triangles>
      </mesh>
    </geometry>
  </library_geometries>
  <library_visual_scenes>
    <visual_scene id="DefaultScene">
      <node id="node_d72e5bf6_bc20_4bc0_a3d3_570952e454ac" type="NODE">
        <matrix>1 0 0 0 0 1 0 0 0 0 1 0 0 0 0 1</matrix>
        <node id="node_f415de58_5ce6_4073_b85d_b9377003d92d" type="NODE">
          <matrix>1 0 0 0 0 1 0 0 0 0 1 0 0 0 0 1</matrix>
          <node id="node_f415de58_5ce6_4073_b85d_b9377003d92d_mesh0" type="NODE">
            <matrix>1 0 0 0 0 1 0 0 0 0 1 0 0 0 0 1</matrix>
            <instance_geometry url="#geometry_2223f83c_79f7_4d65_898e_acccd6ab9024">
              <bind_material>
                <technique_common>
                  <instance_material symbol="mat_0" target="#mat_0"/>
                </technique_common>
              </bind_material>
            </instance_geometry>
          </node>
        </node>
      </node>
    </visual_scene>
  </library_visual_scenes>
  <scene>
    <instance_visual_scene url="#DefaultScene"/>
  </scene>
</COLLADA>
