<?xml version="1.0" encoding="UTF-8"?>
<COLLADA xmlns="http://www.collada.org/2005/11/COLLADASchema" version="1.4.1">
<!--
# File generated by ImageToStl.com - Free Image and 3D model conversion tools
-->
  <asset>
    <contributor>
      <author>ImageToStl.com</author>
      <authoring_tool>ImageToStl.com</authoring_tool>
    </contributor>
    <created>2026-03-22T02:15:52</created>
    <modified>2026-03-22T02:15:52</modified>
    <up_axis>Z_UP</up_axis>
  </asset>
  <library_effects>
    <effect id="effect_0">
        <profile_COMMON>
          <technique sid="common">
            <phong>
              <diffuse>
                <color>0.85 0.85 0.85 1</color>
              </diffuse>
              <specular>
                <color>0.05 0.05 0.05 1</color>
              </specular>
              <shininess>
                <float>64</float>
              </shininess>
            </phong>
          </technique>
        </profile_COMMON>
    </effect>
  </library_effects>
  <library_materials>
    <material id="mat_0">
      <instance_effect url="#effect_0"/>
    </material>
  </library_materials>
  <library_geometries>
    <geometry id="geometry_dff5ce0d_0876_4fb0_9725_780ee2972eaa">
      <mesh>
        <source id="pos_0">
          <float_array id="pos_0-array" count="330">-383.79998779 319.89794922 35.92399216 -383.79998779 300 35.54902267 -383.79998779 300 25.69083595 -383.79998779 694.48547363 40.45742416 -383.79998779 710 41.33724976 -383.79998779 710 45.96241379 -383.79998779 699.34771729 45.50553513 -383.79998779 694.55773926 45.31951141 -383.79998779 689.703125 40.2075386 -383.79998779 679.75708008 44.8003273 -383.79998779 660.83087158 38.82835388 -383.79998779 666.86151123 44.39500046 -383.79998779 399.48806763 37.50954819 -383.79998779 372.99014282 27.81729317 -383.79998779 387.63925171 28.27013588 -383.79998779 468.34429932 39.05600357 -383.79998779 445.97183228 30.18707085 -383.79998779 469.78756714 31.02714539 -383.79998779 658.21490479 44.13790131 -383.79998779 634.33221436 43.45164108 -383.79998779 608.47253418 36.53027344 -383.79998779 612.30450439 42.83014297 -383.79998779 544.20428467 33.86236954 -383.79998779 558.65338135 41.35807419 -383.79998779 527.2288208 33.18966675 -383.79998779 505.5350647 39.97127151 -383.79998779 479.07357788 39.31450653 -414.20986938 300 29.62812233 -417.29666138 300 28.85303688 -413.65527344 300 28.37161827 -409.09344482 300 30.78774834 -390.93899536 300 26.21008682 -394.29742432 300 33.70902634 -402.57141113 300 27.19487572 -403.37976074 300 31.97465134 -408.81185913 300 27.8184185 -411.38327026 300 28.10268974 -388.83990479 710 41.20711899 -397.15145874 710 44.45555878 -415.2833252 710 40.87754822 -416.16113281 710 41.99655533 -414.20373535 710 40.86876297 -413.3772583 710 42.40044785 -408.85684204 710 40.87413406 -410.20352173 710 42.83358383 -404.64004517 710 40.91439819 -397.45892334 710 41.02571106 -421.18328857 710 41.10839462 -420.43591309 710 41.27696228 -419.61907959 710 40.98556519 -419.65740967 710 41.42625427 -418.52893066 710 41.62274933 -407.70230103 501.80142212 32.99570847 -402.07342529 502.58486938 32.76041412 -399.14572144 399.11199951 29.50393677 -397.11734009 704.71252441 40.73285675 -410.50479126 398.02688599 30.36082649 -384.87835693 400.78063965 28.73782158 -392.33575439 399.88052368 29.10540771 -394.95877075 664.00469971 38.77834702 -392.67282104 610.30255127 36.5343895 -390.5909729 557.22772217 34.42416382 -388.60824585 504.68450928 32.41862488 -396.31115723 691.11071777 40.02970123 -416.41241455 686.2164917 39.76389313 -416.29345703 500.85723877 33.56460953 -414.84747314 397.73892212 30.79411507 -405.23208618 398.48934937 29.92575836 -412.47921753 501.21957397 33.26698685 -414.64468384 606.05145264 36.62929153 -417.91546631 605.60693359 36.79346848 -410.38766479 606.76538086 36.51825333 -405.24874878 607.7265625 36.46469498 -403.62771606 554.89715576 34.54556656 -406.98150635 661.16912842 38.57909393 -415.80184937 659.32519531 38.6222496 -407.94973755 688.14501953 39.77523804 -408.49505615 701.69219971 40.43864441 -418.78216553 658.83581543 38.73284149 -419.22894287 685.70471191 39.84934998 -386.70602417 452.56982422 30.51976013 -395.68243408 503.55197144 32.56678772 -420.90664673 685.52532959 39.98300171 -420.6217041 660.43035889 38.95627213 -420.00570679 605.44073486 36.99169922 -419.7980957 586.4387207 36.37640762 -419.01385498 511.01965332 34.14403534 -417.84521484 379.25863647 30.73558998 -412.55599976 501.19781494 35.25246429 -402.21826172 502.57479858 37.1100769 -405.33575439 607.73309326 39.67879486 -395.01815796 664.04278564 42.9239006 -397.14691162 704.75866699 44.21097565 -410.60720825 397.99157715 32.8650856 -399.34909058 399.08584595 34.98913956 -419.24737549 685.70318604 40.34219742 -408.534729 701.71380615 42.65819168 -416.4453125 686.21954346 40.84136963 -396.34994507 691.15423584 43.73016357 -388.80511475 504.6913147 39.23153305 -392.7769165 610.32989502 41.56983948 -385.16946411 400.7678833 37.32810593 -414.8968811 397.70108032 31.93978882 -407.04040527 661.18426514 41.22486877 -407.9954834 688.16455078 42.13678741 -415.84075928 659.32452393 39.8294754 -416.33148193 500.83230591 34.47286224 -417.94219971 605.59521484 37.46433258 -418.80334473 658.83087158 39.28501511 -414.69604492 606.04364014 38.09601593</float_array>
          <technique_common>
            <accessor source="#pos_0-array" count="330" stride="3">
              <param name="X" type="float"/>
              <param name="Y" type="float"/>
              <param name="Z" type="float"/>
            </accessor>
          </technique_common>
        </source>
        <source id="norm_0">
          <float_array id="norm_0-array" count="507">1 0 0 0 -1 -0 0 1 0 -0.04593 0.03012 -0.99849 0.01547 0.05629 -0.99829 -0.07251 0.02904 -0.99694 -0.10985 0.02387 -0.99366 -0.0994 0.02408 -0.99476 -0.03319 0.03283 -0.99891 -0.05686 0.03085 -0.99791 -0.05294 0.03101 -0.99812 -0.06219 0.02805 -0.99767 -0.08433 0.02769 -0.99605 0.00822 0.0421 -0.99908 0.00809 0.04147 -0.99911 -0.007 0.03945 -0.9992 -0.00672 0.0396 -0.99919 -0.0158 0.03754 -0.99917 -0.01615 0.03762 -0.99916 0.01989 0.05279 -0.99841 0.02006 0.05217 -0.99844 0.01949 0.04708 -0.9987 0.01804 0.04771 -0.9987 0.01695 0.04384 -0.99889 0.02101 0.05664 -0.99817 0.02578 0.0492 -0.99846 0.02283 0.0566 -0.99814 -0.00813 0.04716 -0.99885 -0.10091 0.02531 -0.99457 -0.10082 0.02382 -0.99462 -0.11751 0.02317 -0.9928 -0.07195 0.02791 -0.99702 -0.0601 0.02821 -0.99779 -0.0604 0.03075 -0.9977 -0.05429 0.03089 -0.99805 -0.01711 0.03577 -0.99921 -0.0177 0.03895 -0.99908 -0.01297 0.03866 -0.99917 -0.01404 0.04379 -0.99894 -0.00828 0.04223 -0.99907 -0.00972 0.04852 -0.99878 -0.00681 0.04704 -0.99887 0.001 0.05239 -0.99863 -0.04383 0.04138 -0.99818 -0.03772 0.04086 -0.99845 -0.03911 0.04859 -0.99805 -0.02488 0.0463 -0.99862 -0.06173 0.02965 -0.99765 -0.06125 0.02536 -0.9978 -0.07173 0.02571 -0.99709 -0.08441 0.02534 -0.99611 -0.08451 0.02643 -0.99607 -0.08027 0.02653 -0.99642 -0.08054 0.02946 -0.99632 -0.03948 0.03297 -0.99868 -0.05311 0.03247 -0.99806 -0.04697 0.03182 -0.99839 -0.03514 0.03222 -0.99886 -0.03526 0.03304 -0.99883 -0.04628 0.03269 -0.99839 -0.04264 0.03242 -0.99856 -0.03154 0.03272 -0.99897 -0.0322 0.03667 -0.99881 -0.055 0.03613 -0.99783 -0.04291 0.03568 -0.99844 -0.07821 0.04491 -0.99593 -0.08413 0.0452 -0.99543 -0.08358 0.03979 -0.99571 -0.0863 0.03993 -0.99547 -0.09095 0.03454 -0.99526 -0.09709 0.03466 -0.99467 -0.09682 0.03115 -0.99481 -0.07945 0.02948 -0.9964 -0.10592 0.02832 -0.99397 -0.11799 0.02502 -0.9927 -0.1315 0.02447 -0.99101 -0.12298 0.02309 -0.99214 -0.13103 0.02263 -0.99112 0.00953 0.05276 -0.99856 0.01214 0.05155 -0.9986 0.01271 0.04942 -0.9987 0.00855 0.05213 -0.9986 0.01046 0.04467 -0.99895 0.00561 0.04639 -0.99891 0.00718 0.03976 -0.99918 -0.00299 0.04162 -0.99913 -0.00189 0.03625 -0.99934 -0.01629 0.03908 -0.9991 -0.01575 0.03607 -0.99923 -0.02686 0.03712 -0.99895 -0.0266 0.03543 -0.99902 -0.0339 0.03516 -0.99881 -0.03435 0.03523 -0.99879 -0.17302 -0.02918 0.98449 -0.12268 -0.0295 0.99201 -0.11354 -0.04257 0.99262 -0.18312 -0.02366 0.9828 -0.20334 -0.02151 0.97887 -0.18753 -0.02225 0.98201 -0.17136 -0.0468 0.9841 -0.18813 -0.04695 0.98102 -0.11203 -0.04642 0.99262 -0.12319 -0.04637 0.9913 -0.12295 -0.04574 0.99136 -0.13506 -0.04815 0.98967 -0.13412 -0.04759 0.98982 -0.14343 -0.04631 0.98858 -0.12118 -0.03545 0.992 -0.11303 -0.03121 0.9931 -0.11626 -0.03482 0.99261 -0.13132 -0.02687 0.99098 -0.13311 -0.02718 0.99073 -0.13238 -0.0305 0.99073 -0.12083 -0.028 0.99228 -0.12217 -0.02851 0.9921 -0.14938 -0.01969 0.98858 -0.15167 -0.02219 0.98818 -0.13851 -0.02385 0.99007 -0.14211 -0.02456 0.98955 -0.1419 -0.02583 0.98954 -0.24346 -0.02471 0.96959 -0.24197 -0.02465 0.96997 -0.22744 -0.0272 0.97341 -0.13014 -0.02271 0.99124 -0.15997 -0.02367 0.98684 -0.16043 -0.01985 0.98685 -0.16763 -0.02128 0.98562 -0.17262 -0.01856 0.98481 -0.22097 -0.02462 0.97497 -0.20924 -0.02396 0.97757 -0.20906 -0.02656 0.97754 -0.18288 -0.02619 0.98279 -0.17358 -0.02499 0.9845 -0.15241 -0.02447 0.98801 -0.15175 -0.02863 0.988 -0.14332 -0.02729 0.9893 -0.14211 -0.03315 0.9893 -0.13275 -0.03051 0.99068 -0.13094 -0.03812 0.99066 -0.12647 -0.03569 0.99133 -0.15577 -0.04607 0.98672 -0.16679 -0.04698 0.98487 -0.16794 -0.04083 0.98495 -0.23754 -0.03121 0.97088 -0.24382 -0.03143 0.96931 -0.22071 -0.03397 0.97475 -0.22048 -0.0369 0.97469 -0.20942 -0.03725 0.97712 -0.21371 -0.04236 0.97598 -0.1868 -0.03091 0.98191 -0.1861 -0.03594 0.98187 -0.17475 -0.03648 0.98394 -0.17389 -0.04158 0.98389 -0.20711 -0.04188 0.97742 -0.20645 -0.0477 0.97729 -0.21977 -0.04729 0.97441 -0.22213 -0.02703 0.97464 -0.19966 -0.02684 0.9795 -0.19928 -0.03063 0.97946 -0.16138 -0.03005 0.98644 -0.16038 -0.03554 0.98641 -0.14964 -0.03336 0.98818 -0.14812 -0.04051 0.98814 -0.14276 -0.03848 0.98901 -0.14156 -0.04369 0.98897 -0.12456 -0.0431 0.99128 -0.12387 -0.0423 0.9914 -0.11437 -0.04178 0.99256 -0.11194 -0.03856 0.99297</float_array>
          <technique_common>
            <accessor source="#norm_0-array" count="507" stride="3">
              <param name="X" type="float"/>
              <param name="Y" type="float"/>
              <param name="Z" type="float"/>
            </accessor>
          </technique_common>
        </source>
        <vertices id="vert_0">
          <input semantic="POSITION" source="#pos_0"/>
        </vertices>
        <triangles count="216" material="mat_0">
          <input semantic="VERTEX" source="#vert_0" offset="0"/>
          <input semantic="NORMAL" source="#norm_0" offset="1"/>
          <p>0 0 1 0 2 0 3 0 4 0 5 0 5 0 6 0 3 0 6 0 7 0 3 0 3 0 7 0 8 0 7 0 9 0 8 0 8 0 9 0 10 0 9 0 11 0 10 0 0 0 2 0 12 0 2 0 13 0 12 0 13 0 14 0 12 0 12 0 14 0 15 0 14 0 16 0 15 0 15 0 16 0 17 0 11 0 18 0 10 0 18 0 19 0 10 0 10 0 19 0 20 0 19 0 21 0 20 0 20 0 21 0 22 0 21 0 23 0 22 0 22 0 23 0 24 0 23 0 25 0 24 0 24 0 25 0 17 0 25 0 26 0 17 0 17 0 26 0 15 0 27 1 28 1 29 1 27 1 29 1 30 1 2 1 1 1 31 1 1 1 32 1 31 1 31 1 32 1 33 1 32 1 34 1 33 1 33 1 34 1 35 1 34 1 30 1 35 1 35 1 30 1 36 1 30 1 29 1 36 1 5 2 4 2 37 2 5 2 37 2 38 2 39 2 40 2 41 2 40 2 42 2 41 2 41 2 42 2 43 2 42 2 44 2 43 2 43 2 44 2 45 2 44 2 38 2 45 2 45 2 38 2 46 2 38 2 37 2 46 2 47 2 48 2 49 2 48 2 50 2 49 2 49 2 50 2 39 2 50 2 51 2 39 2 39 2 51 2 40 2 52 3 53 3 54 3 45 4 46 4 55 4 13 5 2 5 31 5 56 6 35 6 36 6 35 7 56 7 33 7 16 8 14 8 57 8 14 9 13 9 57 9 57 10 13 10 58 10 13 11 31 11 58 11 58 12 31 12 33 12 59 13 20 13 60 13 20 14 22 14 60 14 60 15 22 15 61 15 22 16 24 16 61 16 61 17 24 17 62 17 24 18 17 18 62 18 55 19 3 19 63 19 3 20 8 20 63 20 63 21 8 21 59 21 8 22 10 22 59 22 59 23 10 23 20 23 46 24 37 24 55 24 37 25 4 25 55 25 55 26 4 26 3 26 64 27 39 27 41 27 65 28 56 28 66 28 56 29 36 29 66 29 66 30 36 30 29 30 54 31 67 31 52 31 67 32 68 32 52 32 52 33 68 33 69 33 68 34 70 34 69 34 71 35 72 35 73 35 72 36 71 36 74 36 71 37 75 37 74 37 74 38 75 38 76 38 75 39 64 39 76 39 76 40 64 40 77 40 64 41 41 41 77 41 77 42 41 42 43 42 75 43 78 43 64 43 78 44 79 44 64 44 64 45 79 45 39 45 79 46 49 46 39 46 53 47 58 47 54 47 58 48 33 48 54 48 54 49 33 49 67 49 33 50 56 50 67 50 67 51 56 51 68 51 56 52 65 52 68 52 68 53 65 53 70 53 16 54 57 54 80 54 57 55 58 55 80 55 80 56 58 56 81 56 58 57 53 57 81 57 81 58 53 58 73 58 53 59 52 59 73 59 73 60 52 60 71 60 52 61 69 61 71 61 71 62 69 62 75 62 69 63 70 63 75 63 75 64 70 64 78 64 47 65 49 65 82 65 49 66 79 66 82 66 82 67 79 67 83 67 79 68 78 68 83 68 83 69 78 69 84 69 78 70 70 70 84 70 84 71 70 71 85 71 70 72 65 72 85 72 85 73 65 73 86 73 65 74 66 74 86 74 86 75 66 75 87 75 66 76 29 76 87 76 87 77 29 77 28 77 43 78 45 78 77 78 45 79 55 79 77 79 77 80 55 80 76 80 55 81 63 81 76 81 76 82 63 82 74 82 63 83 59 83 74 83 74 84 59 84 72 84 59 85 60 85 72 85 72 86 60 86 73 86 60 87 61 87 73 87 73 88 61 88 81 88 61 89 62 89 81 89 81 90 62 90 80 90 62 91 17 91 80 91 80 92 17 92 16 92 88 93 89 93 90 93 18 94 11 94 91 94 6 95 5 95 92 95 93 96 30 96 94 96 30 97 34 97 94 97 94 98 34 98 32 98 51 99 50 99 95 99 50 100 48 100 95 100 5 101 38 101 92 101 38 102 44 102 92 102 92 103 44 103 96 103 44 104 42 104 96 104 96 105 42 105 97 105 42 106 40 106 97 106 91 107 11 107 98 107 11 108 9 108 98 108 98 109 9 109 7 109 99 110 23 110 100 110 23 111 21 111 100 111 100 112 21 112 91 112 21 113 19 113 91 113 91 114 19 114 18 114 0 115 12 115 101 115 12 116 15 116 101 116 15 117 26 117 99 117 26 118 25 118 99 118 99 119 25 119 23 119 28 120 27 120 87 120 27 121 102 121 87 121 87 122 102 122 86 122 15 123 99 123 101 123 99 124 94 124 101 124 101 125 94 125 0 125 94 126 32 126 0 126 0 127 32 127 1 127 27 128 30 128 102 128 30 129 93 129 102 129 102 130 93 130 88 130 93 131 94 131 88 131 88 132 94 132 89 132 94 133 99 133 89 133 89 134 99 134 90 134 99 135 100 135 90 135 90 136 100 136 103 136 100 137 91 137 103 137 103 138 91 138 104 138 91 139 98 139 104 139 40 140 51 140 97 140 51 141 95 141 97 141 97 142 95 142 105 142 86 143 106 143 85 143 106 144 107 144 85 144 85 145 107 145 84 145 107 146 108 146 84 146 84 147 108 147 83 147 108 148 82 148 83 148 106 149 109 149 107 149 109 150 105 150 107 150 107 151 105 151 108 151 105 152 95 152 108 152 108 153 95 153 82 153 95 154 48 154 82 154 82 155 48 155 47 155 86 156 102 156 106 156 102 157 88 157 106 157 106 158 88 158 109 158 88 159 90 159 109 159 109 160 90 160 105 160 90 161 103 161 105 161 105 162 103 162 97 162 103 163 104 163 97 163 97 164 104 164 96 164 104 165 98 165 96 165 96 166 98 166 92 166 98 167 7 167 92 167 92 168 7 168 6 168</p>
        </triangles>
      </mesh>
    </geometry>
  </library_geometries>
  <library_visual_scenes>
    <visual_scene id="DefaultScene">
      <node id="node_6a76f3e7_8eba_4eae_a904_54f20adaa83d" type="NODE">
        <matrix>1 0 0 0 0 1 0 0 0 0 1 0 0 0 0 1</matrix>
        <node id="node_f98f23f5_c84c_44ac_bdf9_50c6dd66db4a" type="NODE">
          <matrix>1 0 0 0 0 1 0 0 0 0 1 0 0 0 0 1</matrix>
          <node id="node_f98f23f5_c84c_44ac_bdf9_50c6dd66db4a_mesh0" type="NODE">
            <matrix>1 0 0 0 0 1 0 0 0 0 1 0 0 0 0 1</matrix>
            <instance_geometry url="#geometry_dff5ce0d_0876_4fb0_9725_780ee2972eaa">
              <bind_material>
                <technique_common>
                  <instance_material symbol="mat_0" target="#mat_0"/>
                </technique_common>
              </bind_material>
            </instance_geometry>
          </node>
        </node>
      </node>
    </visual_scene>
  </library_visual_scenes>
  <scene>
    <instance_visual_scene url="#DefaultScene"/>
  </scene>
</COLLADA>
